<?xml version="1.0" encoding="utf-8"?>
<!-- Generator: Adobe Illustrator 25.4.1, SVG Export Plug-In . SVG Version: 6.00 Build 0)  -->
<svg version="1.1" id="レイヤー_1" xmlns="http://www.w3.org/2000/svg" xmlns:xlink="http://www.w3.org/1999/xlink" x="0px"
	 y="0px" viewBox="0 0 1920 1080" style="enable-background:new 0 0 1920 1080;" xml:space="preserve">
<style type="text/css">
	.st0{fill:#FFFAF0;}
	.st1{fill:#4B473B;}
	.st2{fill:#FFFFFF;}
	.st3{fill:none;stroke:#000000;stroke-width:0.99;stroke-miterlimit:10;}
	.st4{font-family:'Optima-Bold';}
	.st5{font-size:36px;}
	.st6{letter-spacing:-1;}
	.st7{fill:none;}
	.st8{fill:none;stroke:#707070;}
</style>
<g>
	<rect y="1.8" class="st0" width="1920" height="1078.2"/>
	<g>
		<g id="logo">
			<rect id="長方形_9" x="-0.4" y="888" class="st1" width="832" height="192"/>
			<g id="レイヤー_2_00000146491931077145892190000017584480107399255466_">
				<g id="レイヤー_1-2">
					<path id="パス_1" class="st2" d="M81.3,935.4c0.8,1.2-0.2,1.5-0.3,2.7c-0.1,0.6-0.3,1.7-0.6,3l1.6-0.7
						c1.7-0.7,2.9,1.2,2.9,3.2c0,4.6-2.1,12.3-3.3,12.3c-0.4,0-0.7-0.2-0.8-0.5c-0.6-0.9-1.3-1.9-2.2-3l0.3-0.4
						c1.8,1.5,2.1,1.5,2.3,1.2c1.5-2.5,2.4-8.2,2.1-10.2c-0.1-0.8-0.5-1.3-1-1.3c-0.8,0.1-1.6,0.4-2.3,0.8
						c-1.2,5.1-3.4,12.2-5.7,14.3c-0.1,0.2-0.4,0-0.5-0.3c-0.2-0.5-0.2-1.1-0.1-1.6c0.2-0.7,1.2-1.7,1.7-2.7
						c1.3-2.8,2.3-5.8,3.1-8.8c-1.7,0.8-3.3,1.7-3.5,1.8c-0.3,0.1-0.6,0-0.8-0.2c-0.2-0.2-0.8-1.4-1.3-2.3l0.4-0.2
						c0.4,0.5,1,0.8,1.6,0.9c1.4-0.4,2.7-0.9,4-1.5c0.4-1.6,0.6-3.2,0.7-4.8c0-1.2-0.4-2.3-1-3.3l0.4-0.4
						C79.8,933.9,80.6,934.7,81.3,935.4z M86.4,939.1c3.9,1.9,4.7,5.9,5.1,8.2c0,0.4-0.3,2.1-0.8,2.2c-0.3,0-0.6-0.2-0.7-0.5
						c-0.7-0.8-1.8-1.3-3-1.2l-0.1-0.5c0.9-0.1,1.8-0.2,2.7-0.2c0-2.9-1.2-5.6-3.4-7.5L86.4,939.1z"/>
					<path id="パス_2" class="st2" d="M103.3,949.8c1.5-1.2,3.2-4.4,4.4-7.4l-3.1,1c-0.6,0.2-0.7,0.1-1.3-0.6l-1.1-1.2l0.2-0.3
						l1.1,0.5c0.8,0.2,1.6,0.2,2.3,0c0.8-0.2,1.7-0.5,2.5-0.8c0.4-1.2,0.8-2.4,1-3.6c0.2-1,0.1-2.1-0.4-3l0.3-0.2
						c0.8,0.7,1.6,1.5,2.3,2.3c0.1,0.5,0,0.5-0.4,0.9c-0.4,0.9-0.7,1.9-1,2.8c0.6-0.3,1.2-0.6,1.8-0.9c0.3-0.2,0.4-0.5,0.8-0.3
						c0.3,0.2,0.6,0.4,0.8,0.7c0.2,0.1,0.2,0.5-0.7,0.8l-3.3,1.2c-1.2,3.3-2.8,6.5-4.9,9.3c-0.5,0.6-0.8,0.3-1,0
						C103.2,950.6,102.9,950.1,103.3,949.8z M112.6,950.2c-0.1-2.2-0.2-5.1,1.5-6.4l0.4,0.4c-1,1.5-0.6,3.6-0.5,6.2
						c1.8,0.4,3.4,1.1,4.8,2.2c0.4,0.2,0.6,1.5,0.7,1.8s-0.2,1-0.7,0.5c-1.4-1.4-3-2.4-4.8-3c0,2.7-1.3,4.2-2.6,4.6
						c-5.1,1.1-5.4-4.4-2.8-5.8C109.9,950.2,111.2,950,112.6,950.2z M110.5,955.2c1.4-0.1,2-1.2,2.1-3.1v-0.5
						c-1.7-0.3-3.1-0.1-3.5,0.5C108,953.3,108.4,955.3,110.5,955.2L110.5,955.2z M115.6,939.8c2.7,1,4.7,2.8,5,4.9
						c0.1,0.8-0.3,1.2-0.6,1.2c-0.3,0-0.6-0.2-0.8-0.5l-0.1-0.2c-0.9-0.8-1.9-1.2-3.1-1.3l-0.2-0.5c0.7-0.2,1.5-0.3,2.2-0.1
						c-0.8-1.1-1.8-2.1-2.8-3L115.6,939.8z"/>
					<path id="パス_3" class="st2" d="M151.4,945.9c-1.9,0.2-3.7,0.4-5.6,0.6c-3.1,0.5-6.2,1-9.3,1.6c-0.7,0.1-1.7,0.3-2.3,0.5
						c-0.6,0.2-1.2,0.3-1.8,0.4c-0.5-0.1-0.8-0.5-1-0.9c-0.1-0.2,0.2-0.3,0.4-0.3c0.4-0.1,1.2-0.1,1.7-0.2c2.6-0.3,5.2-0.8,7.7-1.2
						v-1.5c-1,0.2-2,0.3-3,0.5c-0.3,0-1.3,0.3-1.6,0.3s-0.8-0.6-0.8-0.9s0.6-0.2,1.1-0.2c1.4-0.2,2.8-0.4,4.2-0.6v-1.5
						c-0.8,0.1-1.2,0.2-2.6,0.4c-0.6,0.1-1,0.2-1.7,0.3c-0.4,0.1-0.8,0.2-1.3,0.3c-0.2,0-0.7-0.5-0.7-1c0-0.2,1-0.2,1.1-0.2
						c1.7-0.2,3.5-0.5,5.2-0.8v-1.7c-2.1,0.3-4.1,0.6-6.2,1c-0.6,0.1-1.2,0.3-1.8,0.4c-0.7,0.2-1.5,0.4-2.3,0.5c-0.3,0-1-0.7-1-0.9
						s0.4-0.3,0.4-0.3c0.5,0,0.9-0.1,1.4-0.1c1.5-0.2,3.1-0.4,4.6-0.7s3.1-0.5,4.6-0.7h0.2v-1.6l-2.7,0.4c-1.3,0.2-2.5,0.6-2.8,0.6
						c-0.4-0.1-0.8-0.5-0.9-0.9c0-0.2,0.3-0.2,0.6-0.2c0.3-0.1,0.7-0.1,1-0.1c1.6-0.2,3.3-0.5,4.8-0.7c0-0.8-0.1-1.6-0.4-2.4
						c-0.1-0.3-0.2-0.6-0.3-0.8c0-0.1,0.1-0.2,0.2-0.2l0,0c0.4,0,1.3,1,1.6,1.3s0.6,0.5,0.6,0.8s-0.3,0.8-0.4,1.1v0.1
						c1-0.1,2.1-0.3,3.1-0.6c0.3-0.1,0.5-0.8,0.8-0.8c0.4,0.1,0.7,0.3,1,0.6c0.4,0.3,0.8,0.6,0.8,0.8c0,0.4-0.5,0.5-0.8,0.8
						c-0.1,0.3-0.2,0.7-0.2,1l0.4,0c0.8-0.1,1.6-0.3,2.4-0.5c0.5-0.2,0.9-1.1,1.3-1.1s2,1.1,2,1.4s-0.5,0.4-0.8,0.5
						c-1.9,0.2-3.4,0.4-5.3,0.6h-0.2v1.2c0.4,0.2,1.1,0.8,1.1,1s-0.5,0.4-0.6,0.4c-0.5,0.1-1,0.1-1.5,0.2l-3.8,0.6v1.5
						c0.9-0.1,1.7-0.3,2.5-0.5c0.5-0.2,0.7-0.8,1-0.8s1.7,0.8,1.7,1.2s-0.2,0.4-0.5,0.4c-0.9,0.1-1.8,0.2-2.7,0.3
						c-0.7,0.1-1.3,0.2-2,0.3v1.5c1.6-0.2,2.3-0.3,3.8-0.5c0.9-0.1,1.9-0.3,2.8-0.5c0.4-0.2,0.7-0.9,1-0.9s2,0.9,2,1.3
						S151.7,945.8,151.4,945.9z M137.9,956.9c-0.4,0-1.1-0.3-1.1-0.8c0-0.3,0.1-0.7,0.2-1c0.1-0.5,0.1-1.1,0.1-1.6
						c0-1.3,0-2.5-0.2-3.8c-0.1-0.4-0.2-0.8-0.3-1.1c0-0.1,0.2-0.2,0.3-0.2c0.4,0.2,0.7,0.5,1,0.8c2-0.3,3.9-0.6,5.9-1
						c0.3,0,0.6-0.1,0.9-0.3c0.2-0.1,0.5-0.7,0.8-0.7s1.9,1.1,1.9,1.5s-0.7,0.6-0.8,0.9c-0.1,0.7-0.1,1.3-0.1,2v4.8
						c0,0.3,0,0.6-0.4,0.6s-1.1-0.4-1.1-0.8c0-0.6,0.1-1.1,0.2-1.7h-0.2l-0.7,0.1c-2,0.2-4,0.5-6,0.8c0,0.2,0,0.3,0,0.5
						C138.2,956.1,138.3,956.9,137.9,956.9L137.9,956.9z M138.1,951.7c1.5-0.2,2.9-0.4,4.3-0.8c0.3-0.1,0.6-0.3,0.9-0.3
						c0.2,0,0.9,0.6,0.9,0.9c0,0.4-0.9,0.4-1.2,0.4c-1.6,0.2-3.3,0.5-4.9,0.7v1.9c1.4-0.2,2.9-0.4,4.2-0.6c0.6-0.1,1.7-0.4,2.1-0.4
						c0.2,0,0.5,0.1,0.6,0.3c0-1.3,0.1-2.7,0.1-4v-0.9c-2.4,0.3-4.7,0.7-7.1,1.1C138.1,950.5,138.1,951.1,138.1,951.7L138.1,951.7z
						 M145.8,940.7c0-0.6,0.1-1.1,0.2-1.7c-1.2,0.2-2.4,0.3-3.6,0.5v1.7L145.8,940.7z M142.3,937.6v1.1l3.7-0.6
						c0-0.5,0.1-1.1,0.1-1.6c-1.3,0.2-2.5,0.4-3.8,0.6C142.3,937.3,142.3,937.4,142.3,937.6L142.3,937.6z"/>
					<path id="パス_4" class="st2" d="M166.8,942.6c-0.1,0.6-0.2,1.3-0.2,1.9c0,3.2,0.1,6.6,0.2,9.8c0,0.4,0.1,1.9-0.6,1.9
						s-1.4-0.5-1.4-1.1c0-0.7,0.1-1.4,0.3-2.1c0.2-1.6,0.3-3.2,0.2-4.8c0-1.3,0.1-2.5,0.1-3.8v-2.7c-1.2,2-2.6,3.8-4.2,5.4
						c-0.2,0.2-0.7,0.7-1,0.7c-0.1,0-0.1,0-0.1-0.1c0,0,0,0,0,0l0,0c0-0.3,0.5-0.9,0.7-1.1c2.2-2.9,4-6.1,5.4-9.5
						c0.3-0.6,0.4-1.3,0.5-1.9c0-0.4-0.2-0.8-0.2-1.2c0-0.2,0.1-0.3,0.3-0.3c0.4,0,1.8,1.7,1.8,2s-0.8,1.4-1,1.8
						c-0.5,0.9-0.9,1.8-1.4,2.8c0.3,0.3,0.7,0.8,0.7,1.1C166.9,941.8,166.9,942.2,166.8,942.6z M171.3,947.8c-1,1.2-2.1,2.2-3.4,3
						c-0.2,0.2-0.5,0.3-0.8,0.4c-0.1,0-0.2-0.1-0.2-0.2s0.4-0.5,0.6-0.6c2.9-2.7,5.3-5.9,6.9-9.5l-1.6,0.3c-0.8,0.2-1.6,0.3-2.5,0.6
						c-0.4,0.2-0.8,0.3-1.3,0.4c-0.3,0-1-0.9-1-1.1s0.6-0.3,0.8-0.3c2-0.2,4-0.6,6-0.9v-2.1c0-0.8-0.1-1.6-0.1-2.4
						c-0.1-0.5-0.2-0.9-0.4-1.4c-0.1-0.3-0.3-0.5-0.4-0.8c0-0.2,0.2-0.2,0.4-0.2c0.4,0.2,0.8,0.5,1.1,0.8c0.5,0.4,1.1,1,1.1,1.3
						c0,0.4-0.1,0.8-0.3,1.2c-0.2,1-0.2,2-0.2,3v0.5c0.6-0.1,1.2-0.2,1.8-0.3c0.5-0.1,0.9-0.2,1.4-0.3c0.5-0.2,0.8-1.2,1.2-1.2
						s2.2,1,2.2,1.5s-0.8,0.5-1.1,0.5c-1.8,0.2-3.4,0.4-5.4,0.7c1.2,2,2.7,3.8,4.4,5.4c0.9,0.8,2,1.5,3.2,2c0.2,0.1,1.3,0.4,1.3,0.6
						s-0.6,0.4-0.8,0.5c-0.6,0.2-1.2,0.4-1.8,0.7c-0.3,0.2-0.6,0.3-0.9,0.4c-0.3,0-0.5-0.5-0.6-0.7c-1.4-2.2-2.7-4-4-6.1
						c-0.3-0.5-0.6-1-1-1.5c0.1,1.6,0,3.2,0,4.8v2.8l0.7-0.1c0.3,0,0.6-0.1,0.9-0.2c0.3-0.2,0.5-0.8,0.8-0.8s1.8,0.9,1.8,1.2
						s-0.2,0.3-0.4,0.3l-1.9,0.2l-1.8,0.3v1.5c0.1,1.2,0.1,2.4,0.1,3.6c0,0.4,0.1,1.5-0.6,1.5c-0.5,0-1.4-0.5-1.4-1
						c0-0.7,0.3-1.6,0.4-2.4c0.1-1,0.1-2,0.1-3.1c-0.7,0.1-1.5,0.2-2.2,0.4c-0.4,0-1.1,0.3-1.5,0.3s-0.8-0.7-0.8-1s0.4-0.2,0.5-0.2
						c0.5,0,1-0.1,1.5-0.1c0.8-0.1,1.7-0.2,2.5-0.4c0-2.2,0.1-5.3,0.1-7C173.8,944.4,172.6,946.2,171.3,947.8z"/>
					<path id="パス_5" class="st2" d="M87.7,992.4c-0.6,5-1.2,10.3-2.1,14.6c3.6-2.6,8.6-5.4,14.3-5.4c11.9,0,13.2,9.7,10.6,15.7
						c-3.2,7.1-11.5,11.4-22.9,11.9l-0.4-1.3c10.4-1.8,19.5-6.8,20.1-14.4c0.4-5.3-2-9.1-10.1-8.1c-5.1,0.6-10.8,3.8-12.3,8.3
						c-0.5,1.7-1.7,2.1-2.8,1.3l-1.1-0.8l-0.1-0.1l-0.2-0.2c-1.1-1.1,0.6-4,1.1-6.2c0.9-3.5,1.6-7.1,2-10.7l0.3-3.5
						c-2.3,0.6-4.4,1.2-6.1,1.6c-1.4,0.3-1.7,0.2-3.2-1.6c-1-1-1.9-2.2-3-3.6l0.8-0.7l2.6,1.4c1.3,0.7,3.2,0.4,5.7-0.1l3.7-0.7
						c0.3-3.6,0.6-7.1,0.7-10.8c0.2-3.4-0.3-6.2-1.4-7.6l0.9-0.8c2.5,1.9,5.6,4.9,5.8,5.4c0.5,1,0,1.2-0.8,2.3
						c-0.5,0.7-0.9,5.1-1.5,10.7c4.3-1.1,9.2-2.5,11.8-4.1c0.7-0.4,1-1.2,1.8-0.7c0.8,0.6,1.5,1.3,2.2,2c0.4,0.3,0.5,1.2-1.6,2
						C99.8,989,93.6,990.8,87.7,992.4z"/>
					<path id="パス_6" class="st2" d="M162.1,979.4c0.2,1.1-0.7,1-1.1,2.3c-2.1,5-6.4,15.7-10.1,25.4c3.5-3.1,6.2-3.2,7.5-3.1
						c2.3,0.2,4.8,1.9,5.2,9.8c0.2,6.2,1.6,8.7,3.9,8.7c4.5,0,11.2-7.9,13.5-20l2,0.4c-1.1,10.5-6.4,23.4-16.4,23.4
						c-3.2,0-6.5-1.9-7.1-11.7c-0.3-6.1-1.1-7.5-2-7.5c-2.7,0-6.1,1.5-9,6.2c-1.5,3.8-2.7,7.1-3.5,9.5c-1,2.8-0.2,3.3-1,5.7
						c-0.4,1.5-1.5,1.7-3.9-0.8s-1.9-2.9-0.6-4.8c2.7-4.1,15.8-34.9,16.8-41.1c0.6-3.3,0.5-6.4-0.3-8.1l0.8-0.8
						C158.7,974.9,160.5,977.1,162.1,979.4z"/>
					<path id="パス_7" class="st2" d="M242.4,1009.7l1.3,0.5c-6.7,18.3-16.6,18.7-20.7,18.7c-4.6,0-7.8-2.3-9.2-6.9
						c-1.4-4.8-1.1-13-1.1-17.7c0-5.5,0.4-14.2,0.4-20.5c0.1-2.6-0.6-5.1-2-7.3l0.7-0.9c2.4,2.1,6.6,5.3,6.8,5.8
						c0.6,1-0.2,1.1-0.6,2.3c-1.3,5.5-1.9,11.1-1.8,16.8c0,9.3-0.3,15.6,0.8,19.5c0.5,1.8,1.6,5,6,5S233.6,1025.3,242.4,1009.7z"/>
					<path id="パス_8" class="st2" d="M283.1,1018l-0.1-24c0-2.6-0.4-4.7-1.3-5.6l0.5-0.5c1.6,1,3.1,2.2,4.5,3.5
						c0.7,1-0.3,0.9-0.4,1.8c-0.3,3.2-0.4,6.4-0.3,9.6c2.6-0.5,5.2-1.3,7.6-2.4c0.4-0.4,1.2-1.1,1.8-0.6s1.2,1.5,1.9,2
						c0.3,0.3,0.1,1.2-1.5,1.7s-5.8,1.5-9.8,2.3l0.1,12.8c5.4,1,10.2,2.9,11.3,3.8c0.6,0.6,1.2,3.9,1.2,4.5c0.1,1.4-0.5,2-1.4,1
						c-2.5-3.1-6.9-5.2-11.2-6.3c-0.4,5.6-5.5,7.6-8.5,7.9c-8.5,1-9.1-7.9-5-10.3C275.8,1017.3,279.4,1017.5,283.1,1018z
						 M276.1,1026.8c3.4,0,6.6-1.5,6.9-6c-3.9-0.6-7.5-0.4-8.9,0.5S272.7,1026.8,276.1,1026.8L276.1,1026.8z"/>
					<path id="パス_9" class="st2" d="M328.2,989l0.9,0.4c-0.9,1.8-1.3,3.8-1.2,5.8c3.2-4.1,7.8-8,14.4-8
						c8.9,0,11.9,6.8,11.9,14.6c-0.1,13.5-9.4,25.2-22.5,28.5l-0.4-1.6c9.3-3.8,18.3-15,18.3-25.8c0-6.6-1.5-11.1-7.6-12.1
						c-6.6-1-10.4,5.6-12,9.4c-0.6,1.6-1.7,1.4-2.4,0.8c-0.7-0.5-1.2-1.1-1.5-1.9C325,995.6,325.8,991.8,328.2,989z M346.9,974.5
						c1,0,1.4,1.1,1.7,2c0.5,1.5,0.2,1.9-0.5,1.9h-1.3c-6.2,0.2-8,0.7-12,2.6l-0.4-0.7c1.4-1.3,3-2.4,4.6-3.3
						c-3.6-1.5-6.7-4.1-8.8-7.5l1.3-0.7C335.8,972.5,341.2,974.5,346.9,974.5L346.9,974.5z"/>
					<path id="パス_10" class="st2" d="M435.1,925h248.7v35.5h82.9v82.9H435.1V925z"/>
					<rect id="長方形_18" x="435.1" y="960.5" class="st3" width="82.9" height="82.9"/>
					<rect id="長方形_19" x="435.1" y="925" class="st3" width="35.5" height="35.5"/>
					<rect id="長方形_20" x="470.6" y="925" class="st3" width="35.5" height="35.5"/>
					<rect id="長方形_21" x="506.2" y="925" class="st3" width="35.5" height="35.5"/>
					<rect id="長方形_22" x="541.7" y="925" class="st3" width="35.5" height="35.5"/>
					<rect id="長方形_23" x="577.2" y="925" class="st3" width="35.5" height="35.5"/>
					<rect id="長方形_24" x="612.8" y="925" class="st3" width="35.5" height="35.5"/>
					<rect id="長方形_25" x="648.3" y="925" class="st3" width="35.5" height="35.5"/>
					<rect id="長方形_26" x="518" y="960.5" class="st3" width="82.9" height="82.9"/>
					<rect id="長方形_27" x="600.9" y="960.5" class="st3" width="82.9" height="82.9"/>
					<rect id="長方形_28" x="683.8" y="960.5" class="st3" width="82.9" height="82.9"/>
					<path id="パス_11" d="M455.7,934.5c0.2,0.3,0,0.3-0.1,0.7c-0.1,1.2-0.2,2.3-0.1,3.5c0.8-0.2,1.3-0.3,1.6-0.4
						c0.5-0.1,0.9-0.3,1.4-0.5c0.2-0.2,0.6-0.2,0.8,0c0.7,0.7,1,1.2,0.6,1.3c-0.3,0.1-0.6,0.1-0.9,0.1c-0.7,0.1-2,0.3-3.5,0.7
						c0,4.1,0.1,9.5,0.1,10c0.1,0.6-0.1,1.2-0.5,1.6c-0.6,0.6-0.6,0.3-0.6,0c-0.4-1.1-1.2-2.1-2.1-2.8l0.1-0.2
						c0.7,0.1,1.4,0.4,2.1,0.8c0-2.2,0-5,0-7.7c-2,3.5-4.9,6.4-8.4,8.5l-0.2-0.5c3.3-2.4,6-5.6,7.8-9.3c-2.2,0.5-4.4,1.1-5.4,1.3
						c-0.4,0.1-0.5,0.3-0.9,0.3c-0.5-0.4-0.9-0.8-1.2-1.3c0-0.2,1.1-0.2,1.7-0.2c0.3,0,3.9-0.8,6.5-1.4l-0.1-3.3
						c0-0.8-0.2-1.6-0.7-2.3l0.2-0.2C454.5,933.5,455.1,934,455.7,934.5L455.7,934.5z"/>
					<path id="パス_12" d="M482.8,937.8c1.5,0.3,2.9,0.7,4.3,1.3c0.5,0.3,1,1.5,0.3,2c-0.2,0.1-0.5,0-0.9-0.5
						c-1.2-1-2.5-1.8-3.9-2.4L482.8,937.8z M485,948.8c4.2-2.5,7.7-6.1,10-10.5l0.6,0.2c-2.6,5.3-5,8.5-10.7,12
						c-0.3,0.2-0.4,0.2-0.8-0.2c-0.4-0.4-0.7-0.8-1.2-1.2l0.4-0.6C483.9,948.9,484.5,949,485,948.8L485,948.8z"/>
					<path id="パス_13" d="M520.1,940.1c-0.5-0.4-0.8-0.8-1.1-1.4c0-0.2,1.1-0.2,1.8-0.2c0.3,0,3.9-0.9,6.2-1.6
						c0-0.2,0.1-0.3,0.2-0.5c0.1-0.4,0.3-0.4,0.5-0.2s1.1,1.4,1.1,1.5s-0.3,0.6-0.5,0.7s-1.1,2.5-3,5.3c1.8,1.1,4.5,2.8,5,3.6
						c0.2,0.7,0.2,1.4,0.2,2.1c0,0.6-0.4,0.7-0.6,0.2c-0.9-1.8-3.3-3.7-5.3-5c-1.9,2.8-4.4,5.1-7.3,6.8l-0.4-0.4
						c3.6-2.8,6.9-6.2,9.8-13l-5.3,1.7C521,939.9,520.6,940,520.1,940.1z"/>
					<path id="パス_14" d="M564.8,937.8c0.2,0.1-0.4,0.6-0.5,0.7c-0.2,0.1-2,10.1-9.7,14l-0.2-0.5c5.8-3.3,7.9-11,8.4-13.7
						l-5.3,1.4c-0.9,2-2,3.9-3.5,5.5l-0.5-0.4c1.9-2.5,3.1-5.5,3.3-8.6c0-0.7-0.2-1.3-0.5-1.8l0.3-0.2c0.7,0.7,1.6,1.5,1.7,1.6
						c0.3,0.3-0.1,0.3-0.2,0.9c0,0.6-0.1,1.1-0.3,1.7l5.2-1.3c0-0.1,0.1-0.2,0.1-0.3c0.1-0.4,0.3-0.4,0.4-0.2
						S564.7,937.7,564.8,937.8z"/>
					<path id="パス_15" d="M591.9,935.2c0.6,0.6,1.3,1.1,1.5,1.3s0.1,0.5-0.1,0.8c-0.3,0.6-0.2,6.5-0.2,7.5c0,0.6-0.3,0.5-0.5,0.4
						c-0.6-0.3-1-1-1-1.7c0.2-2,0.3-4,0.2-6c0.1-0.7,0-1.4-0.3-2.1L591.9,935.2z M597.9,936.4c0.1-0.8-0.1-1.6-0.4-2.4l0.3-0.3
						c0.5,0.5,1,1,1.5,1.5c0.2,0.3-0.2,0.3-0.2,0.7c0,9.5-0.5,13.8-6.4,16.2l-0.2-0.4C596.8,949.3,597.8,946.9,597.9,936.4
						L597.9,936.4z"/>
					<path id="パス_16" d="M636.2,942.9c0.9,0,1,0,1.3-0.2s0.2,0,0.5,0.4c0.2,0.2,0.2,0.3,0,0.4c-0.4,0.4-0.5,0.4-1.1,0.4
						c-5.4,0-8.7,0.3-11,0.4c-1.1,0-1.3,0.4-1.6,0c-0.3-0.3-0.5-0.6-0.7-1l0.3-0.2c0.4,0.2,0.8,0.2,1.2,0.2
						C629.5,943.3,632.9,943,636.2,942.9z"/>
					<path id="パス_17" d="M661.6,937.8c1.5,0.3,2.9,0.7,4.3,1.3c0.5,0.3,1,1.5,0.3,2c-0.2,0.1-0.5,0-0.9-0.5
						c-1.2-1-2.5-1.8-3.9-2.4L661.6,937.8z M663.8,948.8c4.2-2.5,7.7-6.1,10-10.5l0.5,0.2c-2.6,5.3-5,8.5-10.7,12
						c-0.3,0.2-0.4,0.2-0.8-0.2c-0.4-0.4-0.7-0.8-1.2-1.2l0.4-0.6C662.7,948.9,663.3,949,663.8,948.8L663.8,948.8z"/>
					<path id="パス_18" d="M498.1,1002.5c-4.2,0.4-8.3,0.8-12.4,1.4c-6.9,1-13.8,2.2-20.7,3.5c-1.5,0.2-3.7,0.7-5.2,1
						c-1.3,0.4-2.7,0.7-4,1c-1-0.3-1.8-1.1-2.2-2.1c-0.1-0.5,0.5-0.6,0.8-0.6c1-0.2,2.6-0.3,3.7-0.4c5.8-0.7,11.5-1.8,17.2-2.7v-3.4
						c-2.2,0.4-4.4,0.8-6.6,1.2c-0.7,0.1-2.9,0.7-3.6,0.7s-1.7-1.4-1.7-2c0-0.5,1.4-0.4,2.5-0.5c3.2-0.4,6.3-0.8,9.3-1.3l0.1-0.4
						c0-1-0.1-2-0.1-3c-1.8,0.3-2.7,0.4-5.8,1c-1.2,0.2-2.2,0.3-3.8,0.8c-0.9,0.3-1.9,0.5-2.8,0.7c-0.5,0-1.6-1.2-1.6-2.1
						c0-0.5,2.1-0.5,2.5-0.5c3.9-0.5,7.7-1.1,11.5-1.7V989c-4.6,0.7-9.1,1.4-13.7,2.2c-1.4,0.2-2.7,0.6-4,0.9
						c-1.7,0.5-3.4,0.8-5.1,1.1c-0.6,0-2.2-1.4-2.2-2.1s0.8-0.7,1-0.7c1-0.1,1.9-0.2,3-0.3c3.4-0.4,6.9-0.9,10.2-1.5s6.9-1,10.2-1.5
						l0.4-0.1v-3.5l-6,1c-3,0.5-5.5,1.2-6.2,1.2c-1-0.3-1.7-1-2-2c-0.1-0.5,0.6-0.3,1.2-0.5c0.7-0.1,1.4-0.2,2.1-0.2
						c3.5-0.4,7.3-1,10.7-1.5c0.1-1.8-0.2-3.6-0.8-5.3c-0.3-0.6-0.5-1.2-0.6-1.9c0-0.3,0.2-0.5,0.4-0.5h0c0.8,0,3,2.3,3.6,2.9
						s1.3,1,1.3,1.7s-0.7,1.7-0.9,2.5l-0.1,0.1c2.3-0.3,4.6-0.7,6.8-1.2c0.6-0.3,1.2-1.7,1.9-1.7c0.8,0.3,1.6,0.7,2.3,1.2
						c0.8,0.6,1.7,1.2,1.7,1.7c0,0.8-1.1,1.2-1.7,1.8c-0.3,0.7-0.4,1.4-0.4,2.1l1-0.1c1.8-0.2,3.6-0.6,5.4-1
						c1.1-0.4,2.1-2.4,2.9-2.4s4.5,2.4,4.5,3.2s-1.1,1-1.8,1c-4.2,0.4-7.6,0.9-11.7,1.4l-0.4,0.1c-0.1,0.9-0.1,1.8-0.1,2.6
						c1,0.5,2.4,1.7,2.4,2.1c0,0.8-1,0.8-1.3,0.9c-1.1,0.2-2.2,0.3-3.3,0.4c-1.7,0.2-6,0.9-8.5,1.2v3.4c1.9-0.2,3.8-0.5,5.7-1
						c1-0.4,1.5-1.8,2.2-1.8s3.9,1.8,3.9,2.6s-0.5,0.8-1.1,0.9c-2,0.2-4,0.5-6.1,0.8c-1.5,0.2-3,0.4-4.5,0.7c0,1.1,0,2.3,0.1,3.4
						c3.5-0.5,5.1-0.7,8.5-1.2c2.1-0.3,4.1-0.6,6.1-1.2c0.8-0.4,1.6-2,2.3-2c0.9,0,4.3,2,4.3,2.9S498.8,1002.5,498.1,1002.5z
						 M468.1,1027c-1,0-2.6-0.8-2.6-1.8c0.1-0.8,0.3-1.5,0.5-2.3c0.1-1.2,0.2-2.4,0.1-3.6c0.1-2.8,0-5.6-0.4-8.4
						c-0.3-0.8-0.5-1.6-0.7-2.5c0-0.2,0.4-0.5,0.6-0.5c0.8,0.5,1.6,1.1,2.2,1.8c4.4-0.7,8.8-1.4,13.2-2.1c0.7-0.1,1.4-0.3,2.1-0.7
						c0.5-0.3,1.1-1.5,1.7-1.5c0.8,0,4.2,2.5,4.2,3.3s-1.5,1.4-1.8,2c-0.2,1.5-0.3,2.9-0.2,4.4c0,2.5,0.1,5.3,0.1,6.1
						c0,1.5,0.1,3.1-0.1,4.6c0,0.6-0.1,1.4-0.8,1.4s-2.4-1-2.4-1.8c0.1-1.2,0.2-2.5,0.4-3.7c-0.1,0-0.3,0-0.4,0.1
						c-0.7,0.1-1.4,0.1-1.6,0.2c-4.4,0.5-8.8,1.2-13.3,1.8c0.1,0.4,0.1,0.7,0.1,1.1C468.8,1025.3,468.9,1027,468.1,1027L468.1,1027z
						 M468.6,1015.5c3.2-0.4,6.5-1,9.6-1.8c0.6-0.3,1.3-0.6,2-0.8c0.5,0,2,1.4,2,2c0,0.9-2.1,0.8-2.7,0.9c-3.6,0.4-7.3,1-10.9,1.5
						c0,1.4,0,2.9,0.1,4.3c3.1-0.4,6.4-0.9,9.3-1.4c1.2-0.2,3.9-0.9,4.7-1c0.5,0,1.1,0.3,1.4,0.7c0.1-3,0.2-5.9,0.2-8.9
						c0-0.7,0-1.4-0.1-2.1c-5.2,0.8-10.5,1.6-15.7,2.4C468.5,1012.9,468.6,1014.2,468.6,1015.5L468.6,1015.5z M485.6,991.1l0.4-3.8
						c-2.7,0.4-5.4,0.8-8.1,1.2c-0.1,1.2-0.1,2.6-0.1,3.8C480.1,992,483.3,991.5,485.6,991.1L485.6,991.1z M477.9,984.1v2.4l8.2-1.2
						c0.1-1.2,0.2-2.4,0.2-3.6c-2.8,0.4-5.6,0.9-8.4,1.3C477.9,983.4,477.9,983.8,477.9,984.1L477.9,984.1z"/>
					<path id="パス_19" d="M546.2,995.2c-0.2,1.4-0.3,2.8-0.3,4.2c-0.1,7.1,0.2,14.7,0.4,21.8c0.1,1,0.2,4.2-1.2,4.2
						c-1.2,0-3.1-1.1-3.1-2.4c0.1-1.5,0.3-3.1,0.7-4.6c0.4-3.5,0.6-7.1,0.5-10.6c0.1-2.8,0.2-5.6,0.2-8.4c0.1-1.7,0-3.9,0-5.9
						c-2.6,4.4-5.7,8.5-9.3,12.1c-0.5,0.4-1.6,1.5-2.3,1.5c-0.2,0-0.3-0.1-0.3-0.3c0,0,0,0,0,0l0,0c0-0.6,1.1-1.9,1.5-2.4
						c4.6-6.1,9.4-13.9,12-21.1c0.6-1.3,1-2.8,1.1-4.2c0-0.9-0.3-1.8-0.3-2.7c0-0.4,0.1-0.7,0.6-0.7c1,0,4,3.7,4,4.6s-1.7,3-2.1,3.9
						c-1,2.1-2,4.1-3,6.1c0.7,0.8,1.5,1.7,1.5,2.4C546.6,993.6,546.5,994.4,546.2,995.2z M556.4,1006.8c-2.1,2.6-4.7,4.9-7.5,6.8
						c-0.5,0.4-1.2,0.7-1.8,0.8c-0.2,0-0.5-0.1-0.5-0.4c0-0.5,1-1.2,1.2-1.4c6.6-5.7,11.6-13.4,15.4-21.2c-1.1,0.2-2.3,0.4-3.6,0.6
						c-1.8,0.3-3.6,0.8-5.6,1.3c-0.9,0.4-1.9,0.6-2.9,0.8c-0.7,0-2.3-1.9-2.3-2.5s1.2-0.6,1.8-0.7c4.5-0.4,8.9-1.2,13.4-2
						c0-1.5-0.1-3.7-0.1-4.6c-0.1-1.8-0.1-3.6-0.2-5.4c-0.1-1.1-0.4-2.1-0.8-3.1c-0.3-0.6-0.6-1.2-0.8-1.8c0-0.4,0.5-0.5,0.8-0.5
						c0.4,0,1.4,0.9,2.4,1.8c1.2,1.1,2.5,2.3,2.5,2.8c-0.1,0.9-0.3,1.8-0.6,2.7c-0.4,2.2-0.5,4.4-0.5,6.6v1.1c1.4-0.2,2.7-0.4,4-0.7
						c1-0.1,2-0.4,3-0.7c1.1-0.4,1.7-2.6,2.7-2.6s5,2.3,5,3.4c0,0.9-1.8,1-2.4,1.1c-3.9,0.5-7.6,1-12,1.6c2.7,4.5,6,8.5,9.8,12.1
						c2.1,1.9,4.5,3.4,7.1,4.5c0.4,0.2,2.9,0.8,2.9,1.3c0,0.7-1.2,1-1.7,1.1c-1.4,0.4-2.7,0.9-4,1.5c-0.6,0.4-1.3,0.7-2.1,0.9
						c-0.6,0-1.2-1.2-1.4-1.5c-3.2-4.8-6-8.9-8.9-13.6c-0.7-1.1-1.4-2.3-2.1-3.5c0.2,3.6,0.1,7.2,0.1,10.7c0.1,2,0.1,4,0.1,6.1
						l1.6-0.3c0.7,0,1.4-0.2,2.1-0.5c0.7-0.4,1.1-1.7,1.7-1.7s4,1.9,3.9,2.7s-0.5,0.7-1,0.8l-4.2,0.5c-1.4,0.2-2.7,0.4-4,0.6
						c0,1.1,0,2.3,0,3.5c0.1,2.6,0.2,5.2,0.2,7.9c0,1,0.2,3.4-1.2,3.3c-1,0-3-1.2-3-2.2c0-1.5,0.7-3.6,0.9-5.3
						c0.2-2.3,0.3-4.5,0.3-6.8c-1.6,0.2-3.3,0.5-4.9,0.8c-1.1,0.3-2.2,0.5-3.3,0.7c-0.8,0-1.8-1.5-1.8-2.2c0-0.4,1-0.4,1.2-0.4
						c1.1-0.1,2.2-0.2,3.3-0.3c1.8-0.2,3.8-0.5,5.7-0.8c0.1-4.9,0.1-11.8,0.1-15.5C562.1,999.3,559.4,1003.2,556.4,1006.8
						L556.4,1006.8z"/>
					<path id="パス_20" d="M637.1,1010.6c-1.1,1.2-1.8,2.7-2.8,3.9c-2.7,3.7-6.2,6.9-10.2,9.2c-1.8,1-3.8,1.8-5.8,2.4
						c-0.6,0.2-1.3,0.4-2,0.4c-0.2,0-0.6-0.1-0.6-0.4c0-0.5,1-0.8,1.4-1.1c4.5-2.2,7.8-4.2,10.8-7.3c2.7-2.5,4.8-5.7,6-9.2
						c0.1-0.5,0.1-1,0.1-1.5c0-0.4,0.1-1.1,0.5-1.1c0.9,0,3.4,2.8,3.4,3.7C637.8,1009.9,637.3,1010.3,637.1,1010.6z M629.8,1008.7
						c0,0.5,0.1,2.2-0.7,2.2c-1,0-2.8-0.2-2.8-1.5c0-1,0.1-2,0.3-3c0.1-1.4,0.2-2.7,0.2-4.1c0.1-3.4,0.2-6.8,0.2-10.2
						c0.1-3.8-0.1-7.7-0.5-11.5c-0.2-0.9-0.4-1.9-0.5-2.8c0-0.2,0-0.5,0.2-0.5c0.6,0,2.8,2.4,3.2,3.2c5.1-0.9,10.1-1.7,15.2-2.6
						c1.1-0.2,3.8-0.6,4.7-1.2c0.5-0.4,1.5-1.9,2-1.9c1.1,0,4.6,3,4.6,4.1s-1.6,1.6-2.1,2.4c-0.2,1-0.3,2-0.2,3v5
						c0,4.5,0.1,5.4,0.1,9.9c0,2.1,0.3,4.2,0.3,6.3c0,0.6,0.1,2.1-0.8,2.1c-1.1,0-3.1-0.3-3.1-1.7c0-1.1,0.1-2.3,0.1-3.3
						c-0.5,0.1-1.2,0.2-1.5,0.2c-1.7,0.2-3.3,0.5-5,0.8c1,0.7,2,1.5,2,2.1c-0.1,0.6-0.3,1.2-0.5,1.8c-0.2,0.9-0.3,1.8-0.3,2.7
						c0,2.7-0.1,5.5-0.1,8.2c0,1.7,0.8,2.4,2.7,2.4c2.9,0,5.7-0.4,8.5-1.1c1.7-0.5,3.3-1.4,4.5-2.8c1.3-1.4,2.1-3.5,3-6.3
						c0.2-0.5,0.6-0.9,1.1-0.9c0.7,0,0.7,1.1,0.7,1.5c0,1.5-0.8,9.7-1.4,10.2c-0.8,0.7-3.4,1.1-4.4,1.2c-4.5,0.8-9.1,1.3-13.6,1.3
						c-0.9,0-3,0-3.8-0.5c-0.5-0.3-0.5-0.9-0.5-1.4c0-0.7,0.1-1.4,0.1-2.2c0.1-1.5,0.1-3,0.1-4.4c0-2.6,0.1-5.2,0.1-7.7
						c0-0.9-0.1-1.9-0.2-2.8c0-0.3-0.1-0.6-0.2-0.9c-3.9,0.7-7.7,1.3-11.7,1.9L629.8,1008.7L629.8,1008.7z M629.6,988
						c2.4-0.3,4.8-0.7,7.1-1.1c1.6-0.3,3.2-0.6,4.7-1.1c0.7-0.2,3.2-1.5,3.5-1.5c0.8,0,2.4,1.8,2.4,2.6s-2,0.9-2.6,1
						c-5.1,0.8-10.1,1.7-15.2,2.6v5.1c2.4-0.4,4.8-0.7,7.1-1.1c1.6-0.2,3.2-0.5,4.7-1c0.7-0.2,3.2-1.6,3.5-1.6
						c1.2,0.4,2.1,1.4,2.4,2.6c0,0.8-2,0.9-2.6,1l-15.1,2.5v5.7c3.6-0.5,7.1-1,10.6-1.7c1.6-0.3,3.3-0.6,4.9-1.1
						c0.7-0.2,3.2-1.2,3.5-1.2c0.6,0.1,1.1,0.4,1.5,0.9c0-0.3,0.1-0.7,0.1-1c0-7.6,0.1-12.4,0-20c-6.9,1.2-13.5,2.2-20.8,3.5
						C629.6,984.1,629.6,985.9,629.6,988z"/>
					<path id="パス_21" d="M706.7,1012.5c-1.3,1-6.1,4.3-7.4,4.3c-0.3,0-0.8-0.1-0.8-0.5s1.2-1.4,1.7-1.7
						c9.2-6.7,16.4-13.9,21.2-24.2c-1.1,0.2-2.2,0.4-3.4,0.6c-2.1,0.4-4.1,0.8-6.1,1.4c-1.2,0.5-2.4,0.8-3.6,1
						c-1.2-0.4-2.1-1.3-2.5-2.6c0-0.5,1.4-0.5,1.8-0.5c5.2-0.5,10.4-1.5,15.6-2.3c0-1.8,0.1-3.7,0.1-5.4c0-1.3,0-2.6-0.1-3.9
						c0-0.9-0.2-1.8-0.5-2.7c-0.2-0.4-0.4-0.8-0.4-1.2c0-0.2,0.2-0.4,0.4-0.4c0,0,0,0,0,0l0,0c0.9,0,4.8,3.1,4.8,4
						c-0.1,0.5-0.2,1-0.4,1.5c-0.2,0.8-0.4,1.7-0.5,2.5c-0.2,1.7-0.2,3.5-0.2,5.2c2.9-0.3,5.7-0.8,8.6-1.5c1.1-0.5,1.8-2.8,2.7-2.8
						c1.6,0.3,3.1,0.9,4.3,1.9c0.5,0.4,1.4,1,1.4,1.7c0,0.9-1.3,0.9-2,1c-3.6,0.4-7,0.7-11.1,1.3l-3.7,0.5
						c3.8,4.8,9.5,10.8,14.3,13.4c3.2,1.8,6.6,3.1,10.2,3.8c0.4,0.1,2.2,0.4,2.2,1s-1.1,0.8-1.5,1c-2.3,0.5-4.5,1.4-6.5,2.5
						c-0.4,0.2-1,0.7-1.4,0.7c-0.5-0.1-1-0.4-1.2-0.8c-4.8-4.9-8.9-9.7-13.1-14.9c-1.1-1.4-2.3-2.7-3.3-4c0.1,4.5,0.1,8.8,0.1,13.2
						c0,1.1,0,2.2,0.1,3.3c1.1-0.1,2.2-0.3,3.3-0.6c0.7-0.2,2.1-2.4,2.9-2.4s4.5,2.4,4.5,3.3c0,0.6-1.3,0.8-1.8,0.8
						c-1.5,0.2-3.4,0.4-4.9,0.6s-2.7,0.4-4,0.6c0.1,3.6,0.2,7.3,0.2,11c0,0.8,0.2,4.4-0.7,4.4c-0.7,0-1.5-0.1-2.2-0.4
						c-1.1-0.4-1.6-1-1.5-1.5s0.3-2,0.5-3.3c0.2-1.5,0.4-3.2,0.5-3.8c0.1-1.4,0.2-4.2,0.3-5.9c-1.1,0.2-2.2,0.4-3.5,0.7
						c-0.9,0.1-1.8,0.3-2.6,0.6c-0.8,0.3-1.6,0.5-2.4,0.7c-0.7,0-2.9-1.6-2.9-2.3s1.3-0.7,1.7-0.7c1.9-0.1,3.6-0.4,5.4-0.6
						c1.4-0.2,2.9-0.4,4.3-0.6c0-3.9-0.1-7.6,0.1-11.7c0-1.1,0-2.1,0.1-3.1C719.1,1001.5,713.4,1007.7,706.7,1012.5z"/>
				</g>
			</g>
		</g>
		<rect id="variable_haikei" x="879.6" y="888" class="st1" width="1040" height="192"/>
		<g id="Counter_space_title">
			<g id=":">
				<text transform="matrix(1 0 0 1 1694.61 964)" class="st2 st4 st5">:</text>
			</g>
			<g id="Counter_Space">
				<text transform="matrix(1 0 0 1 1450.5699 964)" class="st2 st4 st5">Counter Space</text>
			</g>
		</g>
		<g id="Weight_title">
			<g id="Weight">
				<text transform="matrix(1 0 0 1 950.27 964)" class="st2 st4 st5 st6">W</text>
				<text transform="matrix(1 0 0 1 984.94 964)" class="st2 st4 st5">eight</text>
			</g>
			<g id=":-2">
				<text transform="matrix(1 0 0 1 1076.61 964)" class="st2 st4 st5">:</text>
			</g>
		</g>
		<g id="_16px_midashi">
			<rect id="長方形_4" x="756.6" y="714" class="st1" width="74" height="24"/>
			<rect id="長方形_14" x="765.6" y="723" class="st1" width="74" height="24"/>
			<path id="パス_28" class="st2" d="M780.4,726.2c-0.1-0.3-0.3-0.5-0.6-0.6v-0.1c0.8-0.3,1.5-0.6,2.3-1s1.5-0.7,2.2-1.1l0.1,0.1
				c0,0.9-0.1,1.8-0.1,2.6c0,0.9,0,1.7,0,2.6v3.4c0,0.9,0,1.7,0,2.6s0.1,1.7,0.1,2.5c-0.2,0-0.3,0-0.5,0h-0.9c-0.2,0-0.3,0-0.5,0
				c0.1-0.8,0.1-1.7,0.1-2.5s0-1.7,0-2.6v-7.1L780.4,726.2z M797.4,733.2c0-0.9-0.2-1.7-0.6-2.5c-0.4-0.7-1.1-1-1.9-1
				c-0.4,0-0.8,0.1-1.1,0.2c-0.3,0.2-0.6,0.4-0.9,0.7c-0.3,0.3-0.4,0.7-0.6,1.1c-0.1,0.4-0.2,0.9-0.2,1.4c0,0.5,0.1,0.9,0.2,1.4
				c0.1,0.4,0.3,0.8,0.6,1.1c0.2,0.3,0.5,0.5,0.8,0.7c0.3,0.2,0.7,0.3,1,0.2c0.4,0,0.8-0.1,1.1-0.2c0.3-0.2,0.6-0.4,0.8-0.7
				c0.2-0.3,0.4-0.7,0.5-1.1C797.3,734.1,797.4,733.7,797.4,733.2L797.4,733.2z M797.3,724.3l-0.5-0.1c-0.2,0-0.4,0-0.6,0
				c-0.5,0-1,0.1-1.4,0.3c-0.4,0.2-0.8,0.5-1.1,0.9c-0.3,0.4-0.6,0.8-0.8,1.3c-0.2,0.5-0.4,1-0.6,1.5c-0.1,0.5-0.2,1-0.3,1.5
				c0,0.4-0.1,0.9-0.1,1.3l0,0c0.1-0.2,0.3-0.5,0.5-0.7c0.2-0.2,0.4-0.4,0.7-0.6c0.3-0.2,0.6-0.4,0.9-0.5c0.4-0.1,0.8-0.2,1.2-0.2
				c0.4,0,0.8,0.1,1.2,0.2c0.5,0.1,0.9,0.3,1.3,0.6c0.4,0.3,0.8,0.7,1,1.2c0.3,0.6,0.4,1.2,0.4,1.9c0,0.6-0.1,1.2-0.3,1.8
				c-0.2,0.5-0.5,1-0.9,1.4c-0.4,0.4-0.9,0.7-1.4,0.9c-0.6,0.2-1.2,0.3-1.8,0.3c-0.6,0-1.1-0.1-1.7-0.3c-0.5-0.2-1-0.6-1.4-1
				c-0.5-0.5-0.8-1.1-1-1.8c-0.3-0.9-0.4-1.8-0.4-2.7c0-1.1,0.1-2.1,0.4-3.1c0.2-0.9,0.6-1.8,1.1-2.6c0.5-0.7,1.1-1.3,1.9-1.7
				c0.8-0.4,1.7-0.6,2.5-0.6h0.5c0.1,0,0.2,0,0.3,0l0.3,0.6L797.3,724.3z M801.5,733.3c0-0.5,0-1,0-1.5s0-1.1,0-1.6s0-1,0-1.5
				s0-0.9-0.1-1.2c0.3,0.1,0.6,0.1,0.9,0.1c0.3,0,0.6,0,0.9-0.1c0,0.3-0.1,0.7-0.1,1s0,0.6,0,1l0,0c0.1-0.2,0.2-0.5,0.4-0.7
				c0.2-0.3,0.4-0.5,0.7-0.7c0.3-0.2,0.6-0.4,1-0.5c0.4-0.2,0.9-0.2,1.3-0.2c0.5,0,1,0.1,1.5,0.3c0.5,0.2,0.9,0.5,1.3,0.9
				c0.4,0.4,0.7,1,0.9,1.5c0.3,0.7,0.4,1.5,0.3,2.2c0,0.8-0.1,1.5-0.4,2.2c-0.2,0.6-0.6,1.1-1,1.6c-0.4,0.4-0.9,0.7-1.4,0.9
				c-0.5,0.2-1,0.3-1.6,0.3c-1.3,0.1-2.6-0.7-3.1-1.9l0,0v1.3c0,0.4,0,0.9,0,1.4v1.6c0,0.5,0,1,0,1.5s0,0.9,0.1,1.2
				c-0.3-0.1-0.6-0.1-0.9-0.1c-0.3,0-0.6,0-0.9,0.1c0-0.3,0-0.7,0.1-1.2s0-1,0-1.5s0-1,0-1.6s0-1,0-1.4L801.5,733.3z M808.7,732.2
				c0-0.7-0.1-1.4-0.2-2c-0.1-0.5-0.3-0.9-0.6-1.2c-0.2-0.3-0.5-0.5-0.9-0.7c-0.3-0.1-0.7-0.2-1-0.2c-0.5,0-1,0.1-1.4,0.3
				c-0.4,0.2-0.7,0.5-0.9,0.9c-0.3,0.4-0.4,0.9-0.5,1.3c-0.1,0.5-0.2,1.1-0.2,1.6c0,2.8,1,4.2,2.9,4.2c0.4,0,0.9-0.1,1.2-0.3
				c0.4-0.2,0.7-0.5,0.9-0.9c0.3-0.4,0.4-0.9,0.5-1.4C808.6,733.3,808.7,732.8,808.7,732.2L808.7,732.2z M816.5,731.2l1.4-1.9
				c0.5-0.6,0.9-1.2,1.3-1.9l0.3,0.1h0.3c0.2,0,0.5,0,0.7-0.1c-0.6,0.7-1.3,1.5-1.9,2.2l-1.8,2.2c0.6,0.9,1.2,1.8,1.9,2.6
				s1.3,1.7,2,2.6c-0.2,0-0.4,0-0.5,0h-1c-0.2,0-0.4,0-0.5,0c-0.4-0.7-0.9-1.3-1.4-2s-0.9-1.3-1.4-2l-1.5,2l-1.4,2
				c-0.2,0-0.4,0-0.7,0c-0.2,0-0.5,0-0.7,0c0.6-0.8,1.3-1.5,1.9-2.3s1.2-1.5,1.8-2.3c-0.6-0.8-1.2-1.6-1.8-2.4s-1.2-1.6-1.9-2.5
				l0.5,0.1h0.5c0.2,0,0.4,0,0.5,0l0.5-0.1c0.4,0.6,0.8,1.3,1.2,1.9S816,730.6,816.5,731.2L816.5,731.2z"/>
		</g>
		<g id="_24px_midashi">
			<rect id="長方形_4-2" x="756.6" y="549" class="st1" width="74" height="24"/>
			<rect id="長方形_14-2" x="765.6" y="558" class="st1" width="74" height="24"/>
			<path id="パス_27" class="st2" d="M779.2,560.5c0.4-0.6,0.9-1.1,1.5-1.5c0.7-0.3,1.4-0.5,2.1-0.5c0.5,0,1,0.1,1.5,0.2
				c0.4,0.1,0.9,0.3,1.2,0.6c0.4,0.3,0.6,0.7,0.8,1.1c0.2,0.5,0.3,1.1,0.3,1.6c0,0.4,0,0.9-0.2,1.3c-0.1,0.4-0.3,0.8-0.5,1.2
				c-0.2,0.4-0.5,0.8-0.8,1.1c-0.3,0.4-0.7,0.8-1.1,1.2l-0.9,0.9l-1,1c-0.3,0.3-0.7,0.7-1,1s-0.6,0.7-0.8,1h1.9c1,0,1.8,0,2.5,0
				s1.4-0.1,2-0.1c-0.1,0.2-0.1,0.5-0.1,0.7c0,0.2,0,0.5,0.1,0.7c-0.7,0-1.4,0-2.1,0h-4.3c-0.7,0-1.4,0-2.2,0v-0.2
				c0.9-0.9,1.8-1.7,2.4-2.4c0.7-0.7,1.3-1.3,1.8-1.9c0.4-0.5,0.8-1,1.2-1.5c0.3-0.4,0.5-0.8,0.7-1.3c0.2-0.4,0.3-0.8,0.3-1.2
				c0.1-0.4,0.1-0.8,0.1-1.3c0.1-0.8-0.2-1.6-0.7-2.2c-0.4-0.5-1-0.7-1.6-0.7c-0.4,0-0.8,0.1-1.1,0.2c-0.3,0.1-0.5,0.3-0.8,0.6
				c-0.2,0.2-0.3,0.4-0.5,0.7c-0.1,0.2-0.2,0.4-0.2,0.7h-0.1L779.2,560.5z M795.7,560.5l-1.1,1.5c-0.4,0.6-0.9,1.2-1.3,1.9l-1.3,1.9
				c-0.4,0.6-0.7,1.1-1,1.5h4.7L795.7,560.5L795.7,560.5z M789.5,568.1l1.8-2.6c0.6-0.9,1.2-1.8,1.8-2.6s1.1-1.6,1.6-2.3
				s0.9-1.3,1.2-1.8c0.2,0.1,0.5,0.1,0.7,0.1c0.2,0,0.4,0,0.6-0.1c0,0.9-0.1,1.9-0.1,3s0,2.2,0,3.4v2.2c0.4,0,0.8,0,1.1,0
				s0.6-0.1,0.9-0.1c-0.1,0.4-0.1,0.9,0,1.3c-0.3-0.1-0.6-0.1-0.9-0.1c-0.3,0-0.7,0-1.1,0v0.8c0,0.5,0,1.1,0,1.6s0.1,1,0.1,1.3
				c-0.3,0-0.6,0-0.9,0c-0.3,0-0.6,0-0.9,0c0-0.3,0.1-0.8,0.1-1.3s0.1-1.1,0.1-1.6v-0.8h-1.3h-1.8h-1.8h-1.3V568.1z M801.5,568.4
				c0-0.5,0-1,0-1.5s0-1.1,0-1.6s0-1,0-1.5s0-0.9-0.1-1.2c0.3,0.1,0.6,0.1,0.9,0.1c0.3,0,0.6,0,0.9-0.1c0,0.3-0.1,0.7-0.1,1
				s0,0.6,0,1l0,0c0.1-0.2,0.2-0.5,0.4-0.7c0.2-0.3,0.4-0.5,0.7-0.7c0.3-0.2,0.6-0.4,1-0.5c0.4-0.2,0.9-0.2,1.3-0.2
				c0.5,0,1,0.1,1.5,0.3c0.5,0.2,0.9,0.5,1.3,0.9c0.4,0.4,0.7,1,0.9,1.5c0.3,0.7,0.4,1.5,0.3,2.2c0,0.8-0.1,1.5-0.4,2.2
				c-0.2,0.6-0.6,1.1-1,1.6c-0.4,0.4-0.9,0.7-1.4,0.9c-0.5,0.2-1,0.3-1.6,0.3c-1.3,0.1-2.6-0.7-3.1-1.9l0,0v1.3c0,0.4,0,0.9,0,1.4
				v1.6c0,0.5,0,1,0,1.5s0,0.9,0.1,1.2c-0.3-0.1-0.6-0.1-0.9-0.1c-0.3,0-0.6,0-0.9,0.1c0-0.3,0-0.7,0.1-1.2s0-1,0-1.5s0-1,0-1.6
				s0-1,0-1.4L801.5,568.4z M808.7,567.3c0-0.7-0.1-1.4-0.2-2c-0.1-0.5-0.3-0.9-0.6-1.2c-0.2-0.3-0.5-0.5-0.9-0.7
				c-0.3-0.1-0.7-0.2-1-0.2c-0.5,0-1,0.1-1.4,0.3c-0.4,0.2-0.7,0.5-0.9,0.9c-0.3,0.4-0.4,0.9-0.5,1.3c-0.1,0.5-0.2,1.1-0.2,1.6
				c0,2.8,1,4.2,2.9,4.2c0.4,0,0.9-0.1,1.2-0.3c0.4-0.2,0.7-0.5,0.9-0.9c0.3-0.4,0.4-0.9,0.5-1.4
				C808.6,568.4,808.7,567.8,808.7,567.3L808.7,567.3z M816.5,566.3l1.4-1.9c0.5-0.6,0.9-1.2,1.3-1.9l0.3,0.1h0.3
				c0.2,0,0.5,0,0.7-0.1c-0.6,0.7-1.3,1.5-1.9,2.2l-1.8,2.2c0.6,0.9,1.2,1.8,1.9,2.6s1.3,1.7,2,2.6c-0.2,0-0.4,0-0.5,0h-1
				c-0.2,0-0.4,0-0.5,0c-0.4-0.7-0.9-1.3-1.4-2s-0.9-1.3-1.4-2l-1.5,2l-1.4,2c-0.2,0-0.4,0-0.7,0c-0.2,0-0.5,0-0.7,0
				c0.6-0.8,1.3-1.5,1.9-2.3s1.2-1.5,1.8-2.3c-0.6-0.8-1.2-1.6-1.8-2.4s-1.2-1.6-1.9-2.5l0.5,0.1h0.5c0.2,0,0.4,0,0.5,0l0.5-0.1
				c0.4,0.6,0.8,1.3,1.2,1.9S816,565.6,816.5,566.3L816.5,566.3z"/>
		</g>
		<g id="_56px_midashi">
			<rect id="長方形_4-3" x="756.6" y="420" class="st1" width="74" height="24"/>
			<rect id="長方形_14-3" x="765.6" y="429" class="st1" width="74" height="24"/>
			<path id="パス_26" class="st2" d="M781.1,435.5c0.3-0.2,0.6-0.3,0.9-0.4c0.4-0.1,0.9-0.2,1.4-0.1c0.5,0,1.1,0.1,1.6,0.3
				c0.5,0.2,0.9,0.5,1.2,0.8c0.3,0.3,0.6,0.8,0.8,1.2c0.2,0.5,0.3,0.9,0.3,1.4c0,0.6-0.1,1.2-0.4,1.8c-0.2,0.5-0.6,1-1,1.4
				c-0.5,0.4-1,0.7-1.6,1c-0.6,0.2-1.3,0.3-2,0.3c-0.6,0-1.2,0-1.7-0.1c-0.5-0.1-1-0.3-1.5-0.6v-0.2c0.1-0.2,0.1-0.4,0.2-0.6
				c0.1-0.2,0.1-0.4,0.1-0.6h0.1c0.1,0.2,0.3,0.5,0.5,0.6c0.2,0.2,0.4,0.3,0.7,0.5c0.3,0.1,0.5,0.2,0.8,0.3c0.3,0.1,0.6,0.1,0.8,0.1
				c0.4,0,0.8-0.1,1.2-0.2c0.4-0.1,0.7-0.4,1-0.7c0.3-0.3,0.5-0.7,0.7-1.2c0.2-0.5,0.3-1.1,0.3-1.6c0-0.5-0.1-1-0.2-1.4
				c-0.1-0.4-0.4-0.7-0.6-1c-0.2-0.3-0.6-0.4-0.9-0.5c-0.3-0.1-0.7-0.2-1-0.2c-0.5,0-0.9,0.1-1.4,0.3c-0.3,0.2-0.6,0.3-0.7,0.4
				l-0.2-0.1c0.1-0.5,0.2-1.1,0.2-1.6c0-0.6,0-1.2,0-1.7s0-1.1,0-1.7c0-0.5-0.1-1.1-0.1-1.6l0.2-0.1c0.2,0,0.6,0.1,1.1,0.1
				s1.4,0.1,2.4,0.1h1.7h1.1l0.1,0.1c-0.1,0.2-0.1,0.4-0.1,0.5c0,0.2,0,0.4,0,0.6c0,0.1,0,0.2,0,0.3c-0.4-0.1-0.8-0.1-1.2-0.1
				l-1.5-0.1h-1.5h-1.2L781.1,435.5z M797.4,439.2c0-0.9-0.2-1.7-0.6-2.5c-0.4-0.7-1.1-1-1.9-1c-0.4,0-0.8,0.1-1.1,0.2
				c-0.3,0.2-0.6,0.4-0.9,0.7c-0.3,0.3-0.4,0.7-0.6,1.1c-0.1,0.4-0.2,0.9-0.2,1.4c0,0.5,0.1,0.9,0.2,1.4c0.1,0.4,0.3,0.8,0.6,1.1
				c0.2,0.3,0.5,0.5,0.8,0.7c0.3,0.2,0.7,0.3,1,0.2c0.4,0,0.8-0.1,1.1-0.2c0.3-0.2,0.6-0.4,0.8-0.7c0.2-0.3,0.4-0.7,0.5-1.1
				C797.3,440.1,797.4,439.7,797.4,439.2z M797.3,430.3l-0.5-0.1c-0.2,0-0.4,0-0.6,0c-0.5,0-1,0.1-1.4,0.3c-0.4,0.2-0.8,0.5-1.1,0.9
				c-0.3,0.4-0.6,0.8-0.8,1.3c-0.2,0.5-0.4,1-0.6,1.5c-0.1,0.5-0.2,1-0.3,1.5c0,0.4-0.1,0.9,0,1.3l0,0c0.1-0.2,0.3-0.5,0.5-0.7
				c0.2-0.2,0.4-0.4,0.7-0.6c0.3-0.2,0.6-0.4,0.9-0.5c0.4-0.1,0.8-0.2,1.2-0.2c0.4,0,0.8,0.1,1.2,0.2c0.5,0.1,0.9,0.3,1.3,0.6
				c0.4,0.3,0.8,0.7,1,1.1c0.3,0.6,0.4,1.2,0.4,1.9c0,0.6-0.1,1.2-0.3,1.8c-0.2,0.5-0.5,1-0.9,1.4c-0.4,0.4-0.9,0.7-1.4,0.9
				c-0.6,0.2-1.2,0.3-1.8,0.3c-0.6,0-1.1-0.1-1.7-0.3c-0.5-0.2-1-0.6-1.4-1c-0.5-0.5-0.8-1.1-1-1.8c-0.3-0.9-0.4-1.8-0.4-2.7
				c0-1.1,0.1-2.1,0.4-3.1c0.2-0.9,0.6-1.8,1.1-2.6c0.5-0.7,1.1-1.3,1.9-1.7c0.8-0.4,1.7-0.6,2.5-0.6h0.5c0.1,0,0.2,0,0.3,0l0.3,0.6
				L797.3,430.3z M801.5,439.3c0-0.5,0-1,0-1.5s0-1.1,0-1.6s0-1,0-1.5s0-0.9-0.1-1.2c0.3,0.1,0.6,0.1,0.9,0.1c0.3,0,0.6,0,0.9-0.1
				c0,0.4-0.1,0.7-0.1,1s0,0.6,0,1l0,0c0.1-0.2,0.2-0.5,0.4-0.7c0.2-0.3,0.4-0.5,0.7-0.7c0.3-0.2,0.6-0.4,1-0.5
				c0.4-0.2,0.9-0.2,1.3-0.2c0.5,0,1,0.1,1.5,0.3c0.5,0.2,0.9,0.5,1.3,0.9c0.4,0.4,0.7,1,0.9,1.5c0.3,0.7,0.4,1.5,0.3,2.2
				c0,0.8-0.1,1.5-0.4,2.2c-0.2,0.6-0.6,1.1-1,1.6c-0.4,0.4-0.9,0.7-1.4,0.9c-0.5,0.2-1,0.3-1.6,0.3c-1.3,0.1-2.6-0.7-3.1-1.9l0,0
				v1.3c0,0.4,0,0.9,0,1.4v1.6c0,0.5,0,1,0,1.5s0,0.9,0.1,1.2c-0.3-0.1-0.6-0.1-0.9-0.1c-0.3,0-0.6,0-0.9,0.1c0-0.3,0-0.7,0.1-1.2
				s0-1,0-1.5s0-1,0-1.6s0-1,0-1.4L801.5,439.3z M808.7,438.2c0-0.7-0.1-1.4-0.2-2c-0.1-0.5-0.3-0.9-0.6-1.2
				c-0.2-0.3-0.5-0.5-0.9-0.6c-0.3-0.1-0.7-0.2-1-0.2c-0.5,0-1,0.1-1.4,0.3c-0.4,0.2-0.7,0.5-0.9,0.9c-0.3,0.4-0.4,0.9-0.5,1.3
				c-0.1,0.5-0.2,1.1-0.2,1.6c0,2.8,1,4.2,2.9,4.2c0.4,0,0.9-0.1,1.2-0.3c0.4-0.2,0.7-0.5,0.9-0.9c0.3-0.4,0.4-0.9,0.5-1.4
				C808.6,439.3,808.7,438.8,808.7,438.2L808.7,438.2z M816.5,437.2l1.4-1.9c0.5-0.6,0.9-1.2,1.3-1.9l0.3,0.1h0.3
				c0.2,0,0.5,0,0.7-0.1c-0.6,0.7-1.3,1.5-1.9,2.2l-1.8,2.1c0.6,0.9,1.2,1.8,1.9,2.6s1.3,1.7,2,2.6c-0.2,0-0.4,0-0.5,0h-1
				c-0.2,0-0.4,0-0.5,0c-0.4-0.6-0.9-1.3-1.4-2s-0.9-1.4-1.4-2l-1.5,2l-1.4,2c-0.2,0-0.4,0-0.7,0c-0.2,0-0.5,0-0.7,0
				c0.6-0.8,1.3-1.5,1.9-2.3s1.2-1.5,1.8-2.4c-0.6-0.8-1.2-1.6-1.8-2.4s-1.2-1.6-1.9-2.5l0.5,0.1h0.5c0.2,0,0.4,0,0.5,0l0.5-0.1
				c0.4,0.6,0.8,1.3,1.2,1.9S816,436.6,816.5,437.2L816.5,437.2z"/>
		</g>
		<g id="_80px_midashi">
			<rect id="長方形_4-4" x="756.6" y="280" class="st1" width="74" height="24"/>
			<rect id="長方形_14-4" x="765.6" y="289" class="st1" width="74" height="24"/>
			<path id="パス_25" class="st2" d="M786.2,299.3c0-0.4-0.1-0.9-0.2-1.3c-0.1-0.4-0.3-0.7-0.5-1.1c-0.7-0.9-2-1.2-3.1-0.7
				c-0.3,0.2-0.6,0.4-0.8,0.7c-0.2,0.3-0.4,0.7-0.5,1.1c-0.3,0.9-0.3,1.8,0,2.7c0.1,0.4,0.3,0.7,0.5,1.1c0.2,0.3,0.5,0.5,0.8,0.7
				c0.3,0.2,0.7,0.3,1.1,0.2c0.8,0,1.5-0.3,2-1c0.2-0.3,0.4-0.7,0.5-1.1C786.2,300.3,786.2,299.8,786.2,299.3z M785.7,292.8
				c0-0.3,0-0.7-0.1-1c-0.1-0.3-0.2-0.6-0.4-0.8c-0.2-0.2-0.4-0.4-0.7-0.6c-0.6-0.3-1.4-0.3-2,0c-0.3,0.1-0.5,0.3-0.7,0.6
				c-0.2,0.2-0.3,0.5-0.4,0.8c-0.1,0.3-0.1,0.7-0.1,1c0,0.3,0,0.7,0.1,1c0.1,0.3,0.2,0.6,0.4,0.8c0.2,0.2,0.4,0.4,0.7,0.6
				c0.6,0.3,1.4,0.3,2,0c0.3-0.1,0.5-0.3,0.7-0.6c0.2-0.2,0.3-0.5,0.4-0.8C785.6,293.4,785.7,293.1,785.7,292.8z M779,299.4
				c0-0.8,0.2-1.6,0.7-2.2c0.6-0.7,1.3-1.3,2.2-1.5v-0.1c-0.3-0.1-0.5-0.2-0.8-0.3c-0.3-0.2-0.5-0.4-0.7-0.6
				c-0.2-0.2-0.4-0.5-0.5-0.8c-0.3-0.7-0.3-1.5,0.1-2.2c0.2-0.4,0.4-0.7,0.8-1c0.3-0.3,0.7-0.5,1.2-0.7c0.5-0.2,1-0.3,1.5-0.3
				c0.6,0,1.2,0.1,1.7,0.2c0.4,0.1,0.8,0.4,1.2,0.6c0.3,0.3,0.5,0.6,0.7,0.9c0.2,0.3,0.2,0.7,0.2,1.1c0,0.6-0.2,1.3-0.6,1.8
				c-0.4,0.6-1,1-1.7,1.2v0.1c0.3,0.1,0.6,0.1,0.8,0.2c0.4,0.1,0.7,0.3,1,0.6c0.8,0.6,1.2,1.6,1.1,2.6c0,0.6-0.1,1.2-0.3,1.8
				c-0.2,0.5-0.6,1-1,1.4c-0.4,0.4-0.9,0.7-1.4,0.9c-0.6,0.2-1.1,0.3-1.7,0.3c-0.6,0-1.2-0.1-1.8-0.2c-0.5-0.1-1-0.4-1.4-0.7
				c-0.4-0.3-0.7-0.7-0.9-1.2C779.1,300.6,779,300,779,299.4z M789.9,296.4c0-0.9,0.1-1.8,0.2-2.7c0.1-0.8,0.4-1.5,0.8-2.2
				c0.4-0.6,0.9-1.1,1.5-1.5c0.7-0.4,1.4-0.6,2.2-0.5c0.8,0,1.6,0.2,2.3,0.5c0.6,0.4,1.1,0.9,1.4,1.5c0.4,0.7,0.6,1.4,0.7,2.2
				c0.1,0.9,0.2,1.8,0.2,2.7c0,0.9-0.1,1.8-0.3,2.6c-0.2,0.8-0.4,1.5-0.8,2.2c-0.4,0.6-0.9,1.1-1.5,1.5c-0.6,0.4-1.4,0.6-2.1,0.5
				c-0.8,0-1.6-0.2-2.3-0.5c-0.6-0.3-1.1-0.8-1.4-1.5c-0.4-0.7-0.6-1.4-0.7-2.2C790,298.2,789.9,297.3,789.9,296.4L789.9,296.4z
				 M791.5,296.4c0,0.8,0.1,1.6,0.2,2.5c0.1,0.7,0.2,1.4,0.5,2c0.2,0.5,0.5,1,0.9,1.3c0.9,0.6,2,0.6,2.9,0c0.4-0.4,0.7-0.8,0.9-1.3
				c0.3-0.6,0.4-1.3,0.5-2c0.2-1.6,0.2-3.3,0-4.9c-0.1-0.7-0.2-1.4-0.5-2c-0.2-0.5-0.5-1-0.9-1.3c-0.4-0.3-0.9-0.5-1.4-0.5
				c-0.5,0-1,0.1-1.4,0.4c-0.4,0.3-0.7,0.8-0.9,1.3c-0.3,0.6-0.4,1.3-0.5,2C791.6,294.7,791.6,295.6,791.5,296.4L791.5,296.4z
				 M801.4,299.3c0-0.5,0-1,0-1.5s0-1.1,0-1.6s0-1,0-1.5s0-0.9-0.1-1.2c0.3,0.1,0.6,0.1,0.9,0.1c0.3,0,0.6,0,0.9-0.1
				c0,0.4-0.1,0.7-0.1,1s0,0.6,0,1l0,0c0.1-0.2,0.2-0.5,0.4-0.7c0.2-0.3,0.4-0.5,0.7-0.7c0.3-0.2,0.6-0.4,1-0.5
				c0.4-0.2,0.9-0.2,1.3-0.2c0.5,0,1,0.1,1.5,0.3c0.5,0.2,0.9,0.5,1.3,0.9c0.4,0.4,0.7,1,0.9,1.5c0.3,0.7,0.4,1.5,0.3,2.2
				c0,0.8-0.1,1.5-0.4,2.2c-0.2,0.6-0.6,1.1-1,1.6c-0.4,0.4-0.9,0.7-1.4,0.9c-0.5,0.2-1,0.3-1.6,0.3c-1.3,0.1-2.6-0.7-3.1-1.9l0,0
				v1.3c0,0.4,0,0.9,0,1.4v1.6c0,0.5,0,1,0,1.5s0,0.9,0.1,1.2c-0.3-0.1-0.6-0.1-0.9-0.1c-0.3,0-0.6,0-0.9,0.1c0-0.3,0-0.7,0.1-1.2
				s0-1,0-1.5s0-1,0-1.6s0-1,0-1.4L801.4,299.3z M808.7,298.2c0-0.7-0.1-1.4-0.2-2c-0.1-0.5-0.3-0.9-0.6-1.2
				c-0.2-0.3-0.5-0.5-0.9-0.6c-0.3-0.1-0.7-0.2-1-0.2c-0.5,0-1,0.1-1.4,0.3c-0.4,0.2-0.7,0.5-0.9,0.9c-0.3,0.4-0.4,0.9-0.5,1.3
				c-0.1,0.5-0.2,1.1-0.2,1.6c0,2.8,1,4.2,2.9,4.2c0.4,0,0.9-0.1,1.2-0.3c0.4-0.2,0.7-0.5,0.9-0.9c0.3-0.4,0.4-0.9,0.5-1.4
				C808.6,299.4,808.7,298.8,808.7,298.2L808.7,298.2z M816.4,297.2l1.4-1.9c0.5-0.6,0.9-1.2,1.3-1.9l0.3,0.1h0.3
				c0.2,0,0.5,0,0.7-0.1c-0.6,0.7-1.3,1.5-1.9,2.2l-1.8,2.1c0.6,0.9,1.2,1.8,1.9,2.6s1.3,1.7,2,2.6c-0.2,0-0.4,0-0.5,0h-1
				c-0.2,0-0.4,0-0.5,0c-0.4-0.6-0.9-1.3-1.4-2s-0.9-1.4-1.4-2l-1.5,2l-1.4,2c-0.2,0-0.4,0-0.7,0c-0.2,0-0.5,0-0.7,0
				c0.6-0.8,1.3-1.5,1.9-2.3s1.2-1.5,1.8-2.4c-0.6-0.8-1.2-1.6-1.8-2.4s-1.2-1.6-1.9-2.5l0.5,0.1h0.5c0.2,0,0.4,0,0.5,0l0.5-0.1
				c0.4,0.6,0.8,1.3,1.2,1.9S816,296.6,816.4,297.2L816.4,297.2z"/>
		</g>
		<g id="_120px_midashi">
			<rect id="長方形_4-5" x="756.6" y="124" class="st1" width="74" height="24"/>
			<rect id="長方形_14-5" x="765.6" y="133" class="st1" width="74" height="24"/>
			<path id="パス_24" class="st2" d="M774.8,136.2c-0.1-0.3-0.3-0.5-0.6-0.6v-0.1c0.8-0.3,1.5-0.6,2.3-1s1.5-0.7,2.2-1.1l0.1,0.1
				c-0.1,0.9-0.1,1.8-0.1,2.6c0,0.9,0,1.7,0,2.6v3.4c0,0.9,0,1.7,0,2.6s0.1,1.7,0.1,2.5c-0.2,0-0.3,0-0.5,0h-0.9c-0.2,0-0.3,0-0.5,0
				c0.1-0.8,0.1-1.7,0.1-2.5s0-1.7,0-2.6v-7.1L774.8,136.2z M784.8,135.5c0.4-0.6,0.9-1.1,1.5-1.5c0.7-0.3,1.4-0.5,2.1-0.5
				c0.5,0,1,0.1,1.5,0.2c0.4,0.1,0.9,0.3,1.2,0.6c0.4,0.3,0.6,0.7,0.8,1.1c0.2,0.5,0.3,1.1,0.3,1.6c0,0.4,0,0.9-0.2,1.3
				c-0.1,0.4-0.3,0.8-0.5,1.1c-0.2,0.4-0.5,0.8-0.8,1.1c-0.3,0.4-0.7,0.8-1.1,1.2l-0.9,0.9l-1,1c-0.3,0.4-0.7,0.7-1,1
				s-0.6,0.7-0.8,1h2c1,0,1.8,0,2.5-0.1s1.4-0.1,2-0.1c-0.1,0.2-0.1,0.5-0.1,0.7c0,0.2,0,0.5,0.1,0.7c-0.7,0-1.4,0-2.1,0H786
				c-0.7,0-1.4,0-2.2,0v-0.2c0.9-0.9,1.7-1.7,2.4-2.4c0.7-0.7,1.3-1.3,1.8-1.9c0.4-0.5,0.8-1,1.2-1.5c0.3-0.4,0.5-0.8,0.7-1.3
				c0.2-0.4,0.3-0.8,0.3-1.2c0.1-0.4,0.1-0.8,0.1-1.3c0.1-0.8-0.2-1.6-0.7-2.2c-0.4-0.5-1-0.7-1.6-0.7c-0.4,0-0.8,0.1-1.1,0.2
				c-0.3,0.1-0.5,0.3-0.8,0.6c-0.2,0.2-0.3,0.4-0.5,0.7c-0.1,0.2-0.2,0.4-0.2,0.7h-0.1L784.8,135.5z M795.5,140.4
				c0-0.9,0.1-1.8,0.2-2.7c0.1-0.8,0.4-1.5,0.8-2.2c0.4-0.6,0.9-1.1,1.5-1.5c0.7-0.4,1.4-0.6,2.2-0.6c0.8,0,1.6,0.2,2.3,0.6
				c0.6,0.4,1.1,0.9,1.4,1.5c0.4,0.7,0.6,1.4,0.7,2.2c0.1,0.9,0.2,1.8,0.2,2.7c0,0.9-0.1,1.8-0.3,2.6c-0.2,0.8-0.4,1.5-0.8,2.2
				c-0.4,0.6-0.9,1.1-1.5,1.5c-0.6,0.4-1.4,0.6-2.1,0.5c-0.8,0-1.6-0.2-2.3-0.5c-0.6-0.3-1.1-0.8-1.4-1.4c-0.4-0.7-0.6-1.4-0.7-2.2
				C795.6,142.2,795.5,141.3,795.5,140.4L795.5,140.4z M797.1,140.4c0,0.8,0.1,1.6,0.2,2.5c0.1,0.7,0.2,1.4,0.5,2
				c0.2,0.5,0.5,1,0.9,1.3c0.9,0.6,2,0.6,2.9,0c0.4-0.4,0.7-0.8,0.9-1.3c0.3-0.6,0.4-1.3,0.5-2c0.2-1.6,0.2-3.3,0-4.9
				c-0.1-0.7-0.2-1.4-0.5-2c-0.2-0.5-0.5-1-0.9-1.3c-0.4-0.3-0.9-0.5-1.4-0.5c-0.5,0-1,0.1-1.4,0.4c-0.4,0.3-0.7,0.8-0.9,1.3
				c-0.3,0.6-0.4,1.3-0.5,2C797.2,138.7,797.1,139.6,797.1,140.4L797.1,140.4z M807,143.4c0-0.4,0-1,0-1.5s0-1.1,0-1.6s0-1,0-1.5
				s0-0.9-0.1-1.2c0.3,0.1,0.6,0.1,0.9,0.1c0.3,0,0.6,0,0.9-0.1c0,0.4-0.1,0.7-0.1,1s0,0.6,0,1l0,0c0.1-0.2,0.2-0.5,0.4-0.7
				c0.2-0.3,0.4-0.5,0.7-0.7c0.3-0.2,0.6-0.4,1-0.6c0.4-0.2,0.9-0.2,1.3-0.2c0.5,0,1,0.1,1.5,0.3c0.5,0.2,0.9,0.5,1.3,0.9
				c0.4,0.4,0.7,1,0.9,1.5c0.3,0.7,0.4,1.5,0.3,2.2c0,0.8-0.1,1.5-0.4,2.2c-0.2,0.6-0.6,1.1-1,1.6c-0.4,0.4-0.9,0.7-1.4,0.9
				c-0.5,0.2-1,0.3-1.6,0.3c-1.3,0.1-2.6-0.7-3.1-1.9l0,0v1.3c0,0.4,0,0.9,0,1.4v1.6c0,0.5,0,1,0,1.5s0,0.9,0.1,1.2
				c-0.3-0.1-0.6-0.1-0.9-0.1c-0.3,0-0.6,0-0.9,0.1c0-0.3,0-0.7,0.1-1.2s0-1,0-1.5s0-1,0-1.6s0-1,0-1.4L807,143.4z M814.2,142.2
				c0-0.7-0.1-1.4-0.2-2c-0.1-0.5-0.3-0.9-0.6-1.2c-0.2-0.3-0.5-0.5-0.9-0.6c-0.3-0.1-0.7-0.2-1-0.2c-0.5,0-1,0.1-1.4,0.3
				c-0.4,0.2-0.7,0.5-0.9,0.9c-0.3,0.4-0.4,0.9-0.5,1.3c-0.1,0.5-0.2,1.1-0.2,1.6c0,2.8,1,4.2,2.9,4.2c0.4,0,0.9-0.1,1.2-0.3
				c0.4-0.2,0.7-0.5,0.9-0.9c0.3-0.4,0.4-0.9,0.5-1.4C814.2,143.4,814.3,142.8,814.2,142.2L814.2,142.2z M822,141.2l1.4-1.9
				c0.5-0.6,0.9-1.2,1.3-1.9l0.3,0.1h0.3c0.2,0,0.5,0,0.7-0.1c-0.6,0.7-1.3,1.5-1.9,2.2l-1.8,2.1c0.6,0.9,1.2,1.8,1.9,2.6
				s1.3,1.7,2,2.6c-0.2,0-0.4,0-0.5,0h-1c-0.2,0-0.4,0-0.5,0c-0.4-0.6-0.9-1.3-1.4-2s-0.9-1.4-1.4-2l-1.5,2l-1.4,2
				c-0.2,0-0.4,0-0.7,0c-0.2,0-0.5,0-0.7,0c0.6-0.8,1.3-1.5,1.9-2.3s1.2-1.6,1.8-2.4c-0.6-0.8-1.2-1.6-1.8-2.4s-1.2-1.6-1.9-2.5
				l0.5,0.1h0.5c0.2,0,0.4,0,0.5,0l0.5-0.1c0.4,0.6,0.8,1.3,1.2,1.9S821.6,140.6,822,141.2L822,141.2z"/>
		</g>
		<g id="katakana_midashi">
			<rect id="長方形_10" x="-0.4" y="471" class="st1" width="64" height="176"/>
			<path id="パス_23" class="st2" d="M28.8,509.7c1.3-1.3,2.4-2.8,3.3-4.4c0.9-1.8,1.7-3.7,2.2-5.6c0.6-2.2,1.3-5.2,2.1-9
				c0.1-0.4,0.1-0.7,0-1.1c-0.1-0.4-0.2-0.7-0.4-1l0.4-0.3l1.7,1.4l0.5,0.5c0.1,0.1,0.2,0.2,0.2,0.3c0,0.1-0.1,0.2-0.1,0.3
				c-0.1,0.1-0.2,0.3-0.2,0.5c-0.2,0.7-0.3,1.3-0.4,1.6s-0.2,0.9-0.4,1.6c-0.7,2.7-1.3,4.9-1.9,6.6c-0.6,1.7-1.4,3.4-2.3,4.9
				c-1,1.6-2.4,3-3.9,4.2L28.8,509.7z M43.9,493.3c0.3,0.3,0.5,0.7,0.8,1c0.1,0.1,0,0.2,0,0.3c-0.1,0.1-0.2,0.3-0.3,0.4
				c-0.1,0.1-0.2,0.2-0.3,0.2c-0.3,1-0.5,1.9-0.7,2.9c-0.6,2.9-1.1,5.3-1.6,7.2c-0.5,2-0.9,3-1.3,3.2c-0.2,0.1-0.5,0.2-0.8,0.1
				c-0.1,0-0.3-0.1-0.4-0.2c-0.1-0.1-0.2-0.3-0.3-0.5c-0.1-0.2-0.1-0.4,0-0.6c0.8-2.1,1.4-4.2,1.9-6.3c0.6-2.2,1-4.4,1.3-6.7v-0.3
				c0-0.2,0-0.4,0-0.6c0-0.2,0.1-0.4,0.2-0.6c0.1-0.3,0.4-0.5,0.7-0.4c0,0,0,0,0,0h0.1l0.1,0.1L43.9,493.3z M43.7,494.9
				c-1.8,0.3-3.9,0.7-6.3,1.2c-2.5,0.5-4.3,1-5.4,1.3l-0.4,0.1c-0.3,0.1-0.6,0.2-0.9,0.2c-0.1,0-0.4-0.3-0.8-0.8s-0.7-0.8-0.7-0.9
				s0.2-0.2,0.5-0.3s0.8-0.1,1.3-0.1h0.6c0.3,0,2-0.3,5.1-1s5.1-1.1,5.9-1.4l0.7-0.2L43.7,494.9z M39.1,508.1
				c-0.3-0.7-0.7-1.4-1.2-2c-0.4-0.5-1-0.8-1.5-1.1l0.2-0.3c0.7,0.1,1.4,0.2,2.1,0.5c0.6,0.3,1.2,0.6,1.7,1.1L39.1,508.1z
				 M42.5,523.3l0.9,1c0.1,0.1,0,0.2-0.1,0.4c-0.1,0.1-0.3,0.3-0.4,0.4l0,0c-0.1,0.2-0.2,0.5-0.2,0.7c-2.5,8-6.4,13.3-11.4,15.9
				l-0.2-0.6c2.2-1.5,3.9-3.4,5.3-5.7c1.3-2.2,2.4-4.5,3.3-6.8c0.6-1.5,1-3.1,1.4-4.7c0.1-0.3,0.2-0.6,0.3-0.9
				c0.1-0.3,0.3-0.4,0.4-0.4c0.1,0,0.3,0,0.4,0.2L42.5,523.3z M28.8,532.5c1.3-1.4,2.4-3,3.3-4.7c0.9-1.8,1.5-3.7,1.6-5.8
				c0.1-0.4,0-0.8-0.1-1.1c-0.1-0.3-0.2-0.6-0.4-0.9l0.4-0.4l2.1,1.9c0.1,0.1,0.2,0.2,0.2,0.3c0,0.1-0.1,0.2-0.1,0.3
				c-0.1,0.2-0.2,0.3-0.2,0.5c-0.3,1.9-0.9,3.7-2,5.3c-1.3,1.8-2.7,3.5-4.3,5L28.8,532.5z M41.9,523.1l0.9,1.4l-9.5,2.1l0.8-2
				L41.9,523.1z M34.5,529.1c0.9,0.2,1.7,0.6,2.5,1c0.8,0.5,1.4,1.1,2,1.8l-1,1.7c-0.4-0.8-0.9-1.5-1.5-2.1
				c-0.7-0.7-1.6-1.3-2.5-1.8L34.5,529.1z M28.8,573.7c1.3-1.3,2.4-2.8,3.3-4.4c0.9-1.8,1.7-3.7,2.2-5.6c0.6-2.2,1.3-5.2,2.1-9
				c0.1-0.4,0.1-0.7,0-1.1c-0.1-0.4-0.2-0.7-0.4-1l0.4-0.3l1.7,1.4l0.5,0.5c0.1,0.1,0.2,0.2,0.2,0.3c0,0.1-0.1,0.2-0.1,0.3
				c-0.1,0.1-0.2,0.3-0.2,0.5c-0.2,0.7-0.3,1.3-0.4,1.6s-0.2,0.9-0.4,1.6c-0.7,2.7-1.3,4.9-1.9,6.6c-0.6,1.7-1.4,3.4-2.3,4.9
				c-1,1.6-2.4,3-3.9,4.2L28.8,573.7z M43.9,557.3c0.3,0.3,0.5,0.7,0.8,1c0.1,0.1,0,0.2,0,0.3c-0.1,0.1-0.2,0.3-0.3,0.4
				c-0.1,0.1-0.2,0.1-0.3,0.2c-0.3,1-0.5,1.9-0.7,2.9c-0.6,2.9-1.1,5.3-1.6,7.2c-0.5,2-0.9,3-1.3,3.2c-0.2,0.1-0.5,0.2-0.8,0.2
				c-0.1,0-0.3-0.1-0.4-0.2c-0.1-0.1-0.3-0.3-0.3-0.5c-0.1-0.2-0.1-0.4,0-0.6c0.8-2.1,1.4-4.2,1.9-6.3c0.6-2.2,1-4.4,1.3-6.7V558
				c0-0.2,0-0.4,0-0.6c0-0.2,0.1-0.4,0.2-0.6c0.1-0.3,0.4-0.5,0.7-0.4c0,0,0,0,0,0h0.1l0.1,0.1L43.9,557.3z M43.7,558.9
				c-1.8,0.3-3.9,0.7-6.3,1.2s-4.3,1-5.4,1.3l-0.4,0.1c-0.3,0.1-0.6,0.2-0.9,0.2c-0.1,0-0.4-0.2-0.8-0.8c-0.3-0.3-0.5-0.6-0.7-1
				c0-0.1,0.2-0.2,0.5-0.3c0.4-0.1,0.8-0.1,1.3-0.1h0.6c0.3,0,2-0.3,5.1-1s5.1-1.1,5.9-1.4l0.7-0.2L43.7,558.9z M39.1,572.1
				c-0.3-0.7-0.7-1.4-1.2-2c-0.4-0.5-1-0.8-1.5-1.1l0.2-0.3c0.7,0.1,1.4,0.2,2.1,0.5c0.6,0.3,1.2,0.6,1.7,1.1L39.1,572.1z
				 M42.5,591.1c0.4-0.1,0.8-0.3,1.2-0.5c0.3-0.2,0.7-0.2,1,0.1c0.4,0.4,0.8,0.8,1,1.3c0.1,0.3,0,0.5-0.2,0.6
				c-0.2,0.1-0.3,0.1-0.5,0.1l-0.7,0.1c-1.5,0.2-3.8,0.5-6.9,1s-5.4,1-6.7,1.3l-0.3,0.1c-0.3,0.1-0.7,0.2-1,0.2
				c-0.2,0-0.5-0.3-0.9-0.8c-0.3-0.3-0.5-0.6-0.7-1c0-0.2,0.2-0.3,0.5-0.3c0.5,0,0.9,0,1.4,0h0.5c0.4,0,2.2-0.3,5.5-0.8
				c2.1-0.3,4.1-0.7,6.2-1.2L42.5,591.1z M31.5,606.4c1.3-0.9,2.4-2.1,3.2-3.5c0.9-1.7,1.6-3.6,1.8-5.5c0.4-3.2,0.6-6.5,0.4-9.7
				c0-0.6-0.1-1.2-0.2-1.8c-0.1-0.4-0.2-0.8-0.4-1.1l0.4-0.3c0.5,0.4,1.1,0.8,1.6,1.2c0.3,0.2,0.6,0.5,0.9,0.7
				c0,0.1,0.1,0.1,0.1,0.2c0,0.1,0,0.1-0.1,0.2c-0.1,0.1-0.2,0.3-0.2,0.5c0,3.5-0.3,7-0.8,10.5c-0.3,2-1,3.9-2.1,5.6
				c-1.2,1.5-2.7,2.7-4.4,3.5L31.5,606.4z"/>
		</g>
		<g id="hiragana_midashi">
			<rect id="長方形_2" x="-0.4" y="64" class="st1" width="64" height="176"/>
			<path id="パス_22" class="st2" d="M37,85.4c-0.4,0.1-0.8,0.2-1.2,0.4l-1.6,0.7l-2,0.9c-0.6,0.3-1.2,0.5-1.8,0.6
				c-0.2,0.1-0.4,0.1-0.5,0c-0.2-0.2-0.4-0.4-0.6-0.6c-0.1-0.2-0.3-0.4-0.6-0.8c-0.1-0.1-0.1-0.2-0.2-0.3l-0.2-0.3l0.3-0.3l1,0.5
				c0.2,0.1,0.4,0.1,0.6,0.1c0.3,0,0.6-0.1,0.9-0.2l0.3-0.1c0.7-0.3,1.4-0.5,2.2-0.9c0.8-0.4,1.7-0.8,2.5-1.3l0.1-0.1
				c0.3-0.2,0.5-0.3,0.7-0.2l0.9,0.9c0.1,0.1,0.1,0.2,0.1,0.3c0,0.2-0.1,0.3-0.2,0.4C37.4,85.3,37.2,85.4,37,85.4z M37.2,85.3
				c-0.4,0.1-0.8,0.4-1.1,0.7c-0.3,0.3-0.6,0.7-0.9,1.1c-1.3,1.9-2.4,4.1-3.2,6.3c-0.6,1.4-0.8,2.9-0.6,4.4c0.2,1.1,0.7,1.7,1.5,1.9
				c2.6,0.6,4.4-0.5,5.5-3.3c1-2.8,1.6-7.1,1.6-12.8l1.1,0.9c0.3,4.8,0,8.6-0.9,11.2c-0.8,2.6-1.9,4.3-3.2,5.1
				c-1.2,0.8-2.5,1.1-3.9,0.9c-1.1-0.1-2-0.7-2.6-1.5c-0.6-0.9-0.9-1.9-0.9-2.9c0-1.1,0.1-2.1,0.5-3.1c0.7-2.1,1.6-4,2.8-5.8
				c1-1.5,2.3-2.9,3.8-3.9L37.2,85.3z M40,82.8l0.7,0.3l0.7,0.3c0.1,0,0.2,0.1,0.2,0.2c0,0.2,0.1,0.4,0.1,0.7c0,0.3,0,0.6,0.1,0.9
				c0.3,1.7,0.7,3.4,1.3,5c0.6,1.6,1.4,3,2.3,4.4c0.2,0.2,0.3,0.5,0.3,0.8c0,0.3-0.1,0.7-0.2,1c-0.1,0.2-0.2,0.5-0.4,0.6
				c-0.1,0.1-0.3,0.1-0.4,0.1l-0.1-0.1c-0.9-1.2-1.6-2.6-2.1-4c-0.7-1.9-1.3-3.8-1.8-5.8c-0.4-1.3-0.6-2.6-0.8-4
				C39.8,82.9,39.8,82.8,40,82.8z M33.3,134c1.3-0.2,2.5-0.6,3.7-1.1c1-0.4,1.9-1.1,2.7-1.9c0.7-0.7,1.1-1.6,1.1-2.5
				c0.1-0.9-0.2-1.8-0.8-2.4c-0.9-0.6-1.9-0.8-2.9-0.5c-1,0.1-2,0.5-2.9,1c-0.8,0.4-1.4,1.2-1.7,2c-0.1,0.3-0.3,0.6-0.5,0.7
				c-0.3,0.1-0.5,0-0.8-0.1l-0.5-0.3c-0.1-0.1-0.1-0.3,0-0.6c0.2-0.3,0.4-0.7,0.6-0.9c0.3-0.3,0.5-0.6,0.8-0.9
				c0.9-0.7,1.8-1.4,2.8-1.9c1-0.5,2.1-0.7,3.2-0.8c1.2-0.1,2.4,0.3,3.3,1c0.7,0.6,1.2,1.5,1.3,2.5c0.1,0.9,0,1.8-0.4,2.7
				c-0.7,1.4-1.9,2.6-3.3,3.3c-1.7,0.8-3.7,1.3-5.6,1.2L33.3,134z M33.9,113.8c1.4,0.1,2.7,0.6,3.9,1.4c1,0.7,1.7,1.7,2,2.8
				c0.1,0.3,0.1,0.6-0.1,0.9c-0.1,0.2-0.3,0.4-0.6,0.4c-0.2,0-0.3-0.1-0.5-0.2c-0.2-0.1-0.3-0.2-0.4-0.4c-0.3-0.7-0.7-1.3-1.1-1.9
				c-0.4-0.5-0.8-1-1.3-1.3c-0.6-0.5-1.3-0.9-2.1-1.2L33.9,113.8z M38.3,118.7c-0.4-0.4-0.9-0.7-1.4-0.8c-0.7-0.2-1.4-0.3-2.1-0.2
				l-0.2-0.5c0.7-0.3,1.4-0.4,2.2-0.4c0.6-0.1,1.2,0,1.8,0.2L38.3,118.7z M32.1,118.8c0.7,0.6,1,0.9,1.1,1c0.1,0.1,0.1,0.2,0.1,0.4
				c0,0.1,0,0.3-0.1,0.4c-0.2,0.3-0.3,0.6-0.3,1c0,0.4-0.1,1-0.1,1.8c0,1-0.1,1.9-0.2,2.5c-0.1,0.6-0.2,1.2-0.5,1.8l-1.2,1.1
				l-0.1,0.1c-0.1-0.1-0.2-0.3-0.2-0.5c0-0.5,0.1-0.9,0.2-1.4l0.4-1.8c0,0,0-0.1,0-0.1c0.1-1.4,0.1-2.8,0.1-4.1c0-0.4,0-0.7-0.1-1.1
				c0-0.1-0.1-0.3-0.1-0.4c0-0.3-0.1-0.5-0.2-0.8l0.5-0.2L32.1,118.8z M33.2,145.5c0.5,0.4,1,0.8,1.4,1.3c0.2,0.2,0.3,0.5,0.3,0.8
				c0,0.3-0.1,0.5-0.2,0.8c-0.2,0.3-0.3,0.6-0.3,1c-0.3,1.9-0.7,3.7-1.2,5.5c-0.6,2.4-1.4,4.8-2.3,7.2c-0.5,1.8-1.5,3.4-2.7,4.8
				c-0.2,0.2-0.3,0.2-0.5,0.1c-0.2-0.1-0.3-0.3-0.3-0.4c-0.1-0.2-0.1-0.5-0.1-0.7c0-0.3,0-0.5,0.1-0.8c0.2-0.4,0.4-0.9,0.8-1.2
				c0.2-0.2,0.3-0.4,0.5-0.6c0.1-0.2,0.3-0.5,0.4-0.7c0.7-1.4,1.2-2.9,1.7-4.3c0.6-1.8,1.1-3.7,1.6-5.5c0.4-1.4,0.6-2.9,0.7-4.4
				c0-0.4,0-0.8-0.2-1.2c-0.1-0.4-0.3-0.8-0.5-1.4c-0.1-0.2-0.1-0.3-0.2-0.4l0.4-0.4L33.2,145.5z M27.1,153.2
				c0.2,0.2,0.4,0.4,0.7,0.6c0.2,0.1,0.4,0.2,0.6,0.2c0.6-0.1,1.1-0.3,1.6-0.6c1-0.4,1.9-0.8,2.9-1.2l2.2-0.9c0.5-0.2,1-0.2,1.5,0
				c0.5,0.2,0.8,0.6,1,1.1c0.3,0.7,0.4,1.4,0.4,2.1c0,1.7-0.2,3.4-0.5,5.1c-0.2,1.6-0.7,3.1-1.3,4.6c-0.5,1.3-1,1.9-1.6,2
				c-0.1,0-0.3,0-0.4,0c-0.2-0.1-0.3-0.2-0.3-0.3v-0.1l-0.4-0.6c-0.7-1-1.2-1.8-1.6-2.3l0.3-0.4c0.4,0.3,0.8,0.7,1.2,0.9
				c0.2,0.1,0.4,0.2,0.6,0.2c0.1,0,0.3-0.1,0.3-0.2c0.5-0.9,0.9-1.9,1.1-2.9c0.3-1.2,0.6-2.3,0.7-3.5c0.1-0.9,0.2-1.9,0.2-2.8
				c0-0.3-0.1-0.7-0.4-0.9c-0.2-0.2-0.5-0.3-0.8-0.3c-0.7,0.1-1.3,0.3-1.9,0.6c-0.9,0.4-2.1,1.1-3.6,1.9c-0.4,0.2-0.7,0.4-1.1,0.6
				c-0.3,0.1-0.5,0-0.7-0.2c-0.2-0.3-0.4-0.7-0.6-1.1l-0.6-1.2L27.1,153.2z M39.1,150.1c1.1,0.4,2.1,1.1,2.9,2
				c0.6,0.8,1.1,1.6,1.5,2.6c0.3,0.9,0.5,1.8,0.5,2.7v0.3c0,0.4-0.1,0.8-0.2,1.2c-0.2,0.5-0.4,0.8-0.7,0.8c-0.2,0-0.3-0.1-0.4-0.1
				c-0.2-0.1-0.4-0.3-0.5-0.5c-0.1-0.2-0.2-0.5-0.2-0.8c0-1.4-0.2-2.8-0.6-4.2c-0.4-1.4-1.3-2.7-2.5-3.5L39.1,150.1z M39.6,157.7
				c0.6-0.2,1.3-0.3,1.9-0.3c0.5-0.1,1.1,0,1.6,0.1v1.3l-0.6,0.6c-0.3-0.4-0.7-0.7-1.2-0.9c-0.5-0.2-1-0.3-1.5-0.2L39.6,157.7z
				 M42.1,147.9c1,0.5,2,1.2,2.7,2c0.2,0.2,0.4,0.5,0.5,0.8c0,0.2,0,0.5-0.1,0.7l-0.1,0.1c-0.2,0.4-0.4,0.6-0.6,0.6
				s-0.5-0.3-0.7-0.9c-0.2-0.5-0.4-1-0.7-1.4c-0.4-0.6-0.9-1-1.4-1.5L42.1,147.9z M44.4,146.8c1,0.5,2,1.2,2.8,2
				c0.2,0.2,0.3,0.4,0.5,0.6c0.1,0.1,0.1,0.3,0.1,0.4c0,0.2-0.1,0.4-0.2,0.6l0,0l0,0c-0.1,0.2-0.2,0.4-0.4,0.5
				c-0.2,0.1-0.4,0.1-0.5-0.1c-0.2-0.2-0.3-0.5-0.4-0.8c-0.1-0.5-0.4-0.9-0.7-1.3c-0.4-0.5-0.9-1-1.4-1.5L44.4,146.8z M28.9,193.4
				c-0.2-0.2-0.3-0.5-0.4-0.8c-0.1-0.2,0-0.4,0.1-0.6c0.9-0.9,1.7-2,2.3-3.1c0.8-1.5,1.6-3.1,2.2-4.7c0.5-1.2,0.9-2.5,1.1-3.8
				c0.1-0.6,0.1-1.1,0.1-1.7c0-0.4-0.1-0.8-0.3-1.1l0.3-0.2l1.2,1.1l0.7,0.7c0.1,0.1,0.3,0.3,0.4,0.4c0,0.1,0,0.2,0,0.4
				c-0.1,0.1-0.1,0.2-0.2,0.3l-0.2,0.2c-0.1,0.2-0.2,0.3-0.2,0.5c-0.1,0.2-0.2,0.5-0.3,0.9c-0.7,2.1-1.5,4.1-2.4,6.1
				c-0.8,1.9-1.9,3.6-3.2,5.2c-0.2,0.2-0.4,0.4-0.7,0.6C29.4,193.9,29.1,193.8,28.9,193.4z M36.6,184.1c-1,0.4-2.1,0.7-3.4,1.2
				c-1.2,0.4-2.3,0.8-3.1,1c-0.2,0.1-0.4,0.1-0.5,0c-0.2-0.1-0.4-0.3-0.6-0.5l-0.3-0.3l-0.9-1.1l0.3-0.4l0.9,0.4
				c0.3,0.1,0.6,0.2,0.8,0.1c0.4,0,0.8-0.1,1.1-0.1h0.2c0.9-0.2,1.8-0.5,2.7-0.9c1-0.4,2-0.8,3-1.3l0.2-0.1c0.1-0.1,0.2-0.1,0.3-0.2
				c0.1,0,0.2,0,0.2,0.1l1,1c0.1,0.1,0.1,0.2-0.1,0.3c-0.2,0.2-0.5,0.3-0.8,0.4L36.6,184.1z M40.4,182.7c1.2,0.4,2.3,1,3.3,1.9
				c0.8,0.7,1.4,1.6,1.6,2.7c0.1,0.3,0,0.6-0.1,0.9c-0.1,0.2-0.4,0.4-0.6,0.3c-0.2,0-0.4-0.1-0.5-0.2c-0.1-0.1-0.2-0.3-0.3-0.4
				c-0.2-0.6-0.5-1.2-0.8-1.8c-0.3-0.5-0.6-0.9-1-1.4c-0.5-0.5-1.1-1-1.7-1.5L40.4,182.7z M43.7,187.9c-0.3-0.4-0.7-0.7-1.2-0.9
				c-0.5-0.3-1.1-0.4-1.7-0.4l-0.2-0.4c0.5-0.3,1.1-0.4,1.7-0.3c0.5,0,1,0.2,1.4,0.4L43.7,187.9z M39.2,186.9
				c-0.3,0.5-0.5,1.1-0.5,1.6c0,0.8,0.1,1.7,0.2,2.5c0,0.5,0.1,0.9,0.1,1.5s0.1,1,0.1,1.5c0.1,1-0.2,2.1-0.6,3
				c-0.4,0.7-1.2,1.2-2,1.4c-1.6,0.3-2.7,0.1-3.5-0.6c-0.7-0.7-1.1-1.8-0.8-2.8c0.1-1,0.8-1.9,1.7-2.3c0.6-0.3,1.2-0.4,1.9-0.4
				c0.9-0.1,1.9,0,2.8,0.2c1.7,0.3,3.3,1,4.7,2l0.2,0.1c0.3,0.2,0.6,0.8,0.8,1.8v0.1c0.1,0.3,0,0.5-0.2,0.7
				c-0.2,0.1-0.5,0.1-0.7-0.1c-1-1.1-2.3-1.9-3.6-2.5c-1.1-0.5-2.2-0.7-3.4-0.8c-0.7-0.1-1.4,0.1-2,0.5c-0.3,0.3-0.5,0.7-0.6,1.2
				c-0.1,0.4,0.1,0.8,0.4,1.1c0.4,0.3,0.9,0.5,1.4,0.4c0.5,0,1-0.3,1.3-0.8c0.3-0.6,0.5-1.3,0.5-2c0-0.5,0-1-0.1-1.5
				c-0.1-1.3-0.1-2.5,0.1-3.8c0.1-1,0.6-1.8,1.3-2.4L39.2,186.9z"/>
		</g>
		<rect y="1.8" class="st7" width="1920" height="1080"/>
	</g>
</g>
<g id="長方形_34">
	<rect x="-300" y="-168.2" class="st0" width="212" height="146"/>
	<rect x="-299.5" y="-167.7" class="st8" width="211" height="145"/>
</g>
</svg>
